<?xml version="1.0" standalone="no"?>
<!DOCTYPE svg PUBLIC "-//W3C//DTD SVG 20010904//EN"
 "http://www.w3.org/TR/2001/REC-SVG-20010904/DTD/svg10.dtd">
<svg version="1.0" xmlns="http://www.w3.org/2000/svg"
 width="316.000000pt" height="316.000000pt" viewBox="0 0 316.000000 316.000000"
 preserveAspectRatio="xMidYMid meet">
<metadata>
Created by potrace 1.16, written by Peter Selinger 2001-2019
</metadata>
<g transform="translate(0.000000,316.000000) scale(0.100000,-0.100000)"
fill="#000000" stroke="none">
<path d="M882 216 c3 -106 17 -131 73 -142 37 -7 89 15 99 41 3 9 6 57 6 106
l0 89 -30 0 -30 0 0 -89 c0 -69 -3 -90 -15 -95 -31 -11 -45 22 -45 105 l0 79
-31 0 -31 0 4 -94z"/>
<path d="M1140 195 l0 -115 25 0 c23 0 24 3 27 68 l3 67 43 -68 c34 -53 47
-67 67 -67 l25 0 0 115 0 115 -25 0 c-23 0 -24 -3 -27 -72 l-3 -73 -43 73
c-35 58 -48 72 -67 72 l-25 0 0 -115z"/>
<path d="M1530 298 c0 -8 15 -59 33 -113 33 -99 34 -100 68 -103 l34 -3 34
103 c19 57 36 109 39 116 3 10 -4 13 -29 10 -32 -3 -33 -5 -52 -75 -11 -40
-23 -73 -26 -73 -3 0 -15 33 -26 73 -18 65 -23 72 -47 75 -19 2 -28 -1 -28
-10z"/>
<path d="M1800 195 l0 -115 60 0 c57 0 60 1 60 25 0 22 -4 25 -35 25 -28 0
-35 4 -35 20 0 16 7 20 35 20 31 0 35 3 35 25 0 22 -4 25 -35 25 -28 0 -35 4
-35 20 0 16 7 20 35 20 31 0 35 3 35 25 0 24 -3 25 -60 25 l-60 0 0 -115z"/>
<path d="M2000 195 l0 -115 25 0 c21 0 25 5 25 30 0 17 4 30 8 30 4 0 16 -13
25 -30 15 -24 25 -30 54 -30 l35 0 -26 34 -26 35 25 25 c33 33 33 79 0 111
-20 21 -34 25 -85 25 l-60 0 0 -115z"/>
<path d="M2252 294 c-18 -12 -22 -24 -20 -52 3 -31 10 -40 47 -62 50 -28 61
-47 36 -57 -11 -4 -21 0 -27 10 -5 10 -21 17 -39 17 -27 0 -30 -3 -24 -22 12
-39 33 -53 81 -53 36 0 50 5 65 24 35 44 16 83 -61 124 -25 14 -30 21 -21 30
9 9 16 9 31 -1 30 -18 60 -15 60 6 0 47 -81 69 -128 36z"/>
<path d="M2570 285 c0 -18 5 -25 20 -25 19 0 20 -7 20 -90 l0 -90 30 0 30 0 0
90 c0 89 0 90 25 90 20 0 25 5 25 25 0 24 -2 25 -75 25 -73 0 -75 -1 -75 -25z"/>
<path d="M2796 236 c21 -46 34 -90 34 -115 0 -39 2 -41 30 -41 28 0 30 2 30
39 0 24 14 70 34 115 l35 76 -33 0 c-30 0 -34 -4 -45 -40 -6 -22 -15 -40 -20
-40 -4 0 -14 18 -21 40 -12 36 -17 40 -46 40 l-33 0 35 -74z"/>
</g>
</svg>
