<?xml version="1.0" standalone="no"?>
<!DOCTYPE svg PUBLIC "-//W3C//DTD SVG 20010904//EN"
 "http://www.w3.org/TR/2001/REC-SVG-20010904/DTD/svg10.dtd">
<svg version="1.0" xmlns="http://www.w3.org/2000/svg"
 width="316.000000pt" height="316.000000pt" viewBox="0 0 316.000000 316.000000"
 preserveAspectRatio="xMidYMid meet">
<metadata>
Created by potrace 1.10, written by Peter Selinger 2001-2011
</metadata>
<g transform="translate(0.000000,316.000000) scale(0.050000,-0.050000)"
fill="#000000" stroke="none">
<path d="M5432 6100 c-36 -92 -77 -102 -124 -30 -18 27 -40 45 -48 40 -24 -15
1 -88 39 -116 19 -13 38 -35 43 -48 6 -16 35 -10 98 19 60 29 79 45 56 50 -28
6 -30 17 -15 58 10 27 19 63 19 78 0 56 -36 28 -68 -51z"/>
<path d="M4100 6107 c0 -7 43 -53 95 -102 93 -87 94 -90 50 -110 -70 -33 -53
-58 30 -44 71 13 223 129 168 129 -16 0 -21 14 -14 38 12 38 -30 87 -43 51
-26 -74 -41 -75 -151 -12 -112 64 -135 73 -135 50z"/>
<path d="M4978 5878 l-92 -100 -98 38 c-54 22 -116 46 -138 55 -36 14 -35 10
7 -36 26 -29 73 -63 105 -76 43 -18 53 -31 38 -48 -11 -14 -14 -31 -6 -38 23
-23 106 -14 106 12 0 14 45 80 99 145 55 66 100 127 100 135 2 34 -34 8 -121
-87z"/>
<path d="M3140 5862 c0 -21 -253 -540 -1678 -3450 -177 -361 -322 -661 -322
-665 0 -4 178 -7 395 -7 l396 0 219 400 220 399 837 -4 838 -5 172 -395 172
-395 395 0 c218 0 396 5 396 10 0 6 -50 111 -112 234 l-112 224 88 81 c48 45
109 95 134 111 119 78 117 72 57 135 -68 71 -68 78 6 164 32 38 59 86 59 105
0 20 36 73 79 117 44 45 85 102 93 126 7 23 27 59 43 78 24 27 25 35 5 35 -20
0 -19 8 4 35 62 72 105 365 58 394 -15 9 -22 -17 -22 -77 0 -119 -25 -178
-136 -327 -100 -132 -124 -149 -124 -85 0 61 -22 50 -120 -61 -112 -126 -186
-147 -368 -106 -231 53 -387 187 -252 217 33 7 65 21 71 32 6 10 36 18 67 18
81 0 86 17 27 95 l-53 70 51 44 c80 69 114 132 127 241 17 142 -11 175 -87
103 l-59 -56 -21 66 c-77 242 -106 536 -62 619 39 74 6 89 -38 18 -24 -38 -43
-61 -43 -50 0 11 -23 -25 -50 -79 -28 -54 -47 -108 -43 -120 4 -12 -2 -39 -13
-60 -27 -53 -20 -215 11 -234 17 -11 15 -18 -8 -27 -54 -21 -317 122 -317 172
0 23 -23 69 -51 103 -68 81 -55 102 73 120 118 17 165 59 167 152 1 40 21 63
87 100 109 60 270 260 324 401 44 113 41 144 -10 102 -16 -14 -30 -18 -30 -10
0 8 -13 4 -30 -10 -16 -14 -30 -19 -30 -11 0 15 -21 -8 -160 -179 -45 -55
-131 -152 -192 -216 l-111 -116 -97 62 c-299 192 -675 820 -490 820 57 0 59 6
26 60 -30 47 82 180 153 181 60 1 187 97 257 194 72 100 55 143 -19 49 -79
-101 -290 -194 -260 -114 18 46 -35 37 -119 -20 -155 -105 -307 -62 -387 108
-43 92 -81 131 -81 84z m285 -356 c67 -13 67 -24 10 -132 l-45 -84 -6 70 c-4
41 -29 94 -60 128 l-54 58 50 -15 c28 -8 75 -19 105 -25z m-218 -81 c24 -20
46 -48 49 -63 3 -15 27 -55 53 -89 26 -35 54 -88 62 -118 7 -30 21 -50 31 -44
10 6 18 -8 18 -32 0 -38 91 -232 121 -259 6 -5 43 -52 82 -104 40 -52 76 -90
82 -84 6 6 18 0 26 -14 9 -14 7 -19 -6 -11 -11 7 -26 0 -32 -16 -7 -19 -1 -25
16 -18 44 16 80 -68 53 -126 -35 -77 -27 -111 48 -205 39 -48 71 -95 73 -105
1 -9 4 -26 7 -37 3 -11 6 -30 8 -41 1 -12 10 -16 20 -10 10 6 28 -16 39 -50
21 -59 169 -219 203 -219 10 0 35 -25 57 -56 l40 -56 -43 -3 c-26 -2 -34 3
-20 11 16 10 18 25 5 45 -15 24 -19 24 -21 -6 -2 -19 -5 -46 -7 -60 -2 -14 3
-34 10 -45 7 -11 12 -53 11 -94 -2 -48 4 -68 17 -57 14 11 23 -8 26 -56 3 -40
15 -76 25 -80 11 -3 16 -14 10 -23 -6 -10 16 -33 50 -53 52 -31 60 -47 60
-120 0 -110 93 -231 225 -291 41 -20 52 -36 46 -72 -7 -38 -2 -45 25 -36 28
10 27 7 -4 -17 -21 -16 -46 -25 -55 -19 -9 6 -17 0 -17 -13 0 -13 12 -18 28
-13 32 13 21 -56 -16 -105 -18 -23 -15 -26 13 -15 19 7 35 4 35 -7 0 -10 -9
-19 -20 -19 -11 0 -20 -10 -20 -21 0 -12 9 -16 20 -9 11 7 20 0 20 -16 0 -16
31 -68 70 -116 38 -48 70 -98 70 -111 0 -12 13 -47 28 -77 16 -30 26 -87 22
-127 -3 -40 -2 -57 3 -38 6 20 18 31 27 25 9 -6 10 -35 2 -65 -21 -79 -321
-85 -384 -8 -22 28 -38 36 -38 20 -1 -22 -4 -22 -18 1 -10 16 -14 50 -9 77 6
34 1 44 -15 34 -16 -10 -19 -7 -9 9 8 14 1 40 -15 58 -33 36 -134 256 -134
289 0 12 -27 46 -60 78 -33 31 -58 68 -55 82 3 14 -9 23 -26 20 -18 -3 -48 11
-69 30 -32 31 -73 34 -328 30 -161 -3 -510 1 -777 10 -267 8 -485 9 -485 3 0
-7 -28 -19 -62 -25 -49 -10 -59 -20 -49 -48 10 -27 8 -30 -11 -11 -31 31 -126
-62 -194 -190 -27 -51 -59 -104 -72 -117 -56 -64 -69 -83 -60 -92 9 -10 -111
-198 -167 -260 -50 -56 -386 -52 -371 5 6 22 1 40 -10 40 -32 0 18 140 58 161
22 12 31 33 24 59 -6 24 3 57 22 77 17 20 26 42 19 50 -8 7 -5 13 6 13 11 0
45 54 77 120 32 66 64 120 72 120 8 0 10 18 4 40 -6 22 -2 40 9 40 12 0 27 24
34 52 7 29 26 66 42 82 16 16 35 53 42 82 7 30 30 75 50 102 20 26 37 59 37
74 0 14 12 33 26 42 41 25 79 138 65 190 -11 35 -9 39 7 16 17 -24 27 -14 54
54 19 47 39 81 47 77 7 -5 14 11 16 35 6 75 25 136 41 126 8 -5 31 31 51 80
22 51 46 82 58 75 14 -9 17 -1 10 18 -7 18 -4 35 7 39 21 7 34 53 36 128 1 23
25 66 52 96 28 30 50 63 50 73 0 10 9 19 19 19 11 0 15 12 9 27 -6 16 4 42 21
59 20 20 23 33 8 38 -15 5 -12 18 8 38 44 44 156 271 141 286 -7 6 -3 12 9 12
12 0 28 18 35 41 7 22 32 58 56 80 25 23 43 67 45 104 1 42 11 63 28 59 16 -3
21 6 15 24 -7 16 16 80 49 141 54 100 70 142 75 197 1 9 11 11 22 4 11 -7 20
2 20 19 0 17 19 50 41 72 23 23 43 59 45 80 3 48 25 49 81 4z m768 -1016 c104
-48 106 -61 10 -88 -103 -29 -100 -30 -108 59 -5 44 -3 77 2 74 6 -4 49 -24
96 -45z m636 -789 c-1 -16 15 -29 33 -27 28 2 31 -5 15 -35 -11 -21 -25 -38
-31 -38 -6 0 -4 10 3 22 10 15 -1 18 -33 9 -35 -10 -40 -8 -19 6 28 20 -39
100 -84 102 -17 1 -20 69 -4 85 17 17 120 -90 120 -124z m-226 -60 c133 -81
135 -86 54 -199 -69 -95 -95 -95 -62 0 26 73 13 103 -75 188 -117 111 -87 115
83 11z m507 -893 c139 -16 138 -13 69 -199 l-58 -158 -85 180 c-48 99 -90 188
-95 198 -5 10 7 12 26 5 19 -7 83 -19 143 -26z"/>
<path d="M3124 4279 c-25 -10 -72 -47 -105 -83 -54 -59 -67 -83 -62 -119 1 -7
-13 -11 -31 -10 -17 2 -36 -10 -42 -25 -7 -21 1 -25 28 -15 33 12 34 10 6 -12
-17 -14 -60 -83 -94 -155 -35 -71 -63 -121 -64 -110 0 11 -9 7 -19 -9 -10 -16
-12 -39 -5 -50 23 -36 17 -60 -27 -102 -23 -22 -43 -54 -44 -70 -4 -44 -16
-84 -44 -142 -36 -75 -12 -185 50 -226 27 -17 49 -27 49 -20 0 7 13 -2 30 -18
72 -72 864 -65 820 7 -6 9 6 12 25 7 22 -5 45 9 62 37 22 36 22 40 1 21 -14
-14 -34 -25 -44 -25 -9 0 10 22 42 50 50 42 59 63 57 137 -2 70 -7 82 -24 58
-20 -27 -24 -27 -36 3 -7 20 -4 29 7 22 11 -7 20 -8 20 -2 0 27 -166 383 -184
394 -13 8 -10 17 7 24 22 9 22 14 -2 31 -16 11 -35 17 -41 13 -7 -4 -10 29 -8
74 2 45 -2 71 -11 58 -9 -15 -28 7 -51 58 -38 85 -163 221 -199 219 -12 -1
-42 -10 -67 -20z m96 -194 c26 -63 122 -277 214 -474 91 -198 166 -362 166
-365 0 -3 -198 -6 -440 -6 -242 0 -440 3 -440 6 0 3 75 167 166 365 92 197
189 411 215 474 60 141 61 141 119 0z"/>
<path d="M5121 5670 c-1 -33 16 -88 37 -123 25 -41 32 -69 19 -82 -13 -13 -5
-23 23 -31 26 -7 47 0 53 18 6 15 27 28 45 28 40 0 102 117 102 191 0 73 -26
60 -71 -35 -50 -107 -80 -116 -124 -36 -69 125 -84 137 -84 70z"/>
<path d="M4232 5603 c-6 -10 -65 -24 -132 -31 -164 -19 -146 -71 25 -72 55 0
73 -26 35 -50 -35 -21 -22 -45 30 -55 44 -8 50 -3 50 50 0 47 7 57 33 46 60
-22 267 -37 267 -19 0 10 -54 41 -120 68 -66 28 -120 57 -120 65 0 21 -55 19
-68 -2z"/>
<path d="M5420 5315 c-22 -36 -40 -74 -40 -85 -1 -89 -101 -230 -154 -218 -79
18 -219 101 -233 137 -12 32 -53 43 -53 16 0 -57 170 -195 279 -225 l51 -14
-75 -45 c-137 -82 -95 -106 56 -33 126 60 190 127 149 152 -24 15 -22 25 13
64 51 56 87 160 87 249 0 85 -29 85 -80 2z"/>
<path d="M4261 5228 c-61 -44 -286 -123 -451 -158 -54 -12 -56 -15 -22 -34 36
-20 255 -9 322 17 23 8 27 2 17 -24 -12 -31 -4 -33 85 -20 121 18 174 45 161
82 -9 21 14 26 103 24 113 -2 324 53 324 85 0 9 -92 17 -205 17 -159 2 -210 9
-227 32 -27 38 -23 39 -107 -21z"/>
<path d="M4842 4616 c-61 -14 -80 -25 -61 -36 15 -10 34 -13 43 -8 40 25 220
-64 260 -129 l42 -67 -58 -46 -58 -47 50 -10 c162 -34 165 -33 154 35 -20 122
123 179 354 140 103 -17 82 8 -75 89 l-131 67 -92 -51 -91 -51 -45 69 c-49 76
-111 85 -292 45z"/>
<path d="M4820 4031 c0 -64 235 -231 326 -231 57 0 37 -40 -26 -53 -76 -15
-75 -28 2 -85 51 -38 71 -43 109 -25 35 16 48 14 57 -8 14 -37 110 -38 124 -1
6 16 1 48 -12 72 -32 60 -19 65 79 30 129 -45 331 -39 414 12 80 49 89 85 14
57 -119 -45 -426 74 -452 176 -19 75 -39 81 -78 24 -57 -84 -370 -76 -475 12
-67 57 -82 60 -82 20z"/>
<path d="M1780 1641 c0 -5 -2 -176 -4 -380 l-4 -371 69 0 69 0 0 130 c0 188
61 187 188 -5 87 -132 91 -135 175 -135 107 0 108 -9 -12 151 l-100 133 58 58
c104 104 104 249 -1 350 -55 53 -438 113 -438 69z m274 -141 c54 0 106 -50
106 -101 0 -69 -71 -119 -170 -119 l-90 0 0 107 c0 120 11 140 69 124 23 -6
61 -11 85 -11z"/>
<path d="M3700 1270 l0 -380 250 -2 250 -3 0 73 0 72 -190 -6 -190 -7 0 92 0
91 140 0 140 0 0 70 0 70 -140 0 -140 0 0 90 0 90 190 0 190 0 0 65 0 65 -250
0 -250 0 0 -380z"/>
<path d="M4580 1295 c0 -206 0 -382 0 -390 0 -8 29 -15 65 -15 l65 0 -7 220
-7 220 46 -40 c25 -22 131 -119 236 -215 105 -96 196 -175 202 -175 5 0 8 169
5 375 -2 206 -9 373 -15 370 -5 -3 -37 -5 -70 -5 l-60 0 0 -215 0 -214 -230
229 -230 229 0 -374z"/>
<path d="M903 1274 c-213 -438 -200 -394 -113 -394 61 0 74 10 110 80 l41 80
149 0 150 0 35 -75 c29 -63 190 -133 184 -81 0 3 -84 177 -187 386 l-187 380
-182 -376z m249 -108 c-4 -5 -39 -6 -76 -2 l-69 6 40 90 39 90 37 -88 c21 -48
34 -92 29 -96z"/>
<path d="M2720 1263 l0 -380 155 10 c214 13 235 19 316 90 291 256 125 639
-283 654 l-188 7 0 -381z m392 169 c149 -149 49 -392 -160 -392 l-92 0 0 230
0 230 92 0 c78 0 102 -10 160 -68z"/>
<path d="M4570 624 c-156 -32 -156 -192 -1 -268 93 -45 116 -88 59 -110 -20
-7 -40 1 -51 21 -25 43 -137 45 -137 2 0 -115 201 -170 291 -80 91 91 60 162
-112 257 -50 27 -60 41 -42 59 19 19 33 18 63 -1 40 -24 140 -34 140 -13 0 10
-38 90 -50 105 -13 15 -125 35 -160 28z"/>
<path d="M1760 438 c0 -216 52 -298 189 -298 134 0 171 63 171 289 l0 191 -60
0 -60 0 0 -178 c0 -146 -6 -180 -33 -190 -69 -27 -91 27 -84 202 l7 166 -65 0
-65 0 0 -182z"/>
<path d="M2274 385 l4 -235 56 0 56 0 -7 135 c-8 168 -4 167 99 -6 136 -229
180 -204 184 106 l4 235 -61 0 -62 0 9 -118 c13 -178 0 -181 -93 -25 -72 121
-93 143 -139 143 l-54 0 4 -235z"/>
<path d="M2820 380 l0 -240 60 0 60 0 0 240 0 240 -60 0 -60 0 0 -240z"/>
<path d="M3047 595 c5 -14 43 -122 83 -241 74 -216 74 -216 135 -210 63 6 79
40 207 441 10 32 2 37 -54 31 -64 -6 -67 -10 -108 -165 -48 -178 -51 -178 -99
24 l-35 145 -70 0 c-47 0 -66 -8 -59 -25z"/>
<path d="M3589 385 l1 -235 130 0 c127 0 130 1 136 55 6 52 2 55 -75 55 -68 0
-81 7 -81 40 0 32 13 40 70 40 61 0 70 6 70 50 0 44 -9 50 -70 50 -57 0 -70 8
-70 40 0 33 13 40 80 40 72 0 80 5 80 50 0 48 -4 50 -136 50 l-136 0 1 -235z"/>
<path d="M3992 385 l2 -235 58 0 c55 0 58 4 53 80 l-5 80 35 -49 c83 -115 95
-124 161 -118 l65 7 -62 76 -63 75 52 41 c138 108 33 278 -172 278 l-126 0 2
-235z m217 104 c43 -43 7 -109 -60 -109 -43 0 -49 9 -49 70 0 79 51 97 109 39z"/>
<path d="M4900 379 l0 -242 65 7 c36 3 63 13 60 21 -3 8 -5 114 -5 235 l0 220
-60 0 -60 0 0 -241z"/>
<path d="M5120 570 c0 -40 10 -50 50 -50 50 0 50 -1 50 -190 l0 -190 60 0 60
0 0 190 c0 189 0 190 50 190 40 0 50 10 50 50 0 49 -3 50 -160 50 -157 0 -160
-1 -160 -50z"/>
<path d="M5520 613 c0 -3 32 -71 70 -150 48 -99 70 -172 70 -234 0 -86 2 -89
60 -89 58 0 60 3 60 90 0 64 21 132 70 230 85 169 85 160 3 160 -63 0 -69 -6
-93 -91 -28 -100 -43 -97 -79 16 -21 64 -161 123 -161 68z"/>
</g>
</svg>
