<?xml version="1.0" standalone="no"?>
<!DOCTYPE svg PUBLIC "-//W3C//DTD SVG 20010904//EN"
 "http://www.w3.org/TR/2001/REC-SVG-20010904/DTD/svg10.dtd">
<svg version="1.0" xmlns="http://www.w3.org/2000/svg"
 width="3071.000000pt" height="2126.000000pt" viewBox="0 0 3071.000000 2126.000000"
 preserveAspectRatio="xMidYMid meet">
<metadata>
Created by potrace 1.16, written by Peter Selinger 2001-2019
</metadata>
<g transform="translate(0.000000,2126.000000) scale(0.100000,-0.100000)"
fill="#000000" stroke="none">
<path d="M22470 20638 c-412 -578 -632 -1214 -627 -1806 1 -94 1 -172 -1 -172
-1 0 -33 46 -70 103 -141 215 -253 478 -297 697 -38 189 -35 433 9 613 13 53
19 94 15 91 -16 -9 -103 -179 -145 -281 -146 -351 -239 -777 -291 -1323 -14
-146 -17 -288 -18 -667 0 -266 -3 -483 -7 -483 -15 0 -128 102 -239 216 -207
213 -364 456 -410 634 l-19 75 4 -150 c13 -411 189 -817 484 -1113 66 -66 161
-151 209 -187 8 -6 32 -123 62 -305 53 -314 67 -381 108 -528 14 -51 23 -95
20 -98 -11 -11 -216 97 -334 176 -238 158 -451 362 -574 548 -38 58 -69 99
-69 92 0 -29 74 -231 119 -324 174 -359 469 -664 862 -891 l121 -70 77 -120
c121 -190 224 -319 370 -466 232 -232 453 -361 707 -414 89 -18 270 -21 367
-5 120 19 286 86 355 145 l31 26 39 -20 c101 -51 290 -233 424 -406 108 -139
206 -290 196 -300 -2 -2 -64 14 -138 36 -597 176 -1242 300 -1774 339 l-160
12 -130 128 c-413 403 -753 648 -1031 741 -55 19 -92 24 -175 24 -95 0 -110
-3 -156 -27 -170 -89 -210 -271 -98 -445 153 -240 663 -524 1219 -682 115 -32
312 -74 402 -86 l52 -7 183 -191 c275 -288 299 -314 387 -417 44 -52 77 -97
73 -101 -4 -3 -47 -16 -97 -29 -49 -12 -165 -49 -257 -81 -91 -33 -171 -59
-177 -59 -6 0 -50 31 -99 69 -197 154 -423 287 -582 341 -82 28 -212 39 -285
25 -110 -22 -188 -104 -207 -218 -40 -241 134 -422 491 -512 195 -49 537 -76
726 -57 l90 9 54 -49 c167 -152 363 -249 604 -299 126 -26 364 -29 467 -5 62
14 66 14 90 -5 230 -180 369 -250 584 -294 79 -16 261 -22 310 -9 24 6 28 2
47 -41 12 -27 42 -85 68 -129 244 -425 612 -520 966 -251 111 85 216 216 265
331 16 37 24 44 39 39 44 -14 141 -25 217 -25 202 0 408 71 639 221 l90 58 77
-19 c233 -60 523 -42 752 46 111 43 196 89 303 165 79 56 82 57 122 48 172
-39 530 -51 697 -24 272 44 462 162 552 345 34 69 37 82 37 162 0 81 -2 88
-30 125 -93 116 -281 133 -542 47 -119 -39 -365 -163 -491 -247 l-112 -76
-188 83 c-103 46 -220 94 -259 107 -40 13 -73 26 -73 29 0 19 336 340 563 537
l139 120 86 7 c622 49 1192 259 1482 545 229 226 265 460 85 554 -30 16 -64
22 -138 25 -159 7 -270 -21 -482 -122 -257 -123 -596 -365 -850 -607 l-60 -57
-210 -6 c-643 -20 -1201 -82 -1713 -192 -89 -19 -169 -37 -177 -40 -23 -9 -18
17 12 61 54 81 217 267 310 352 108 100 231 192 316 235 l58 29 67 -49 c97
-71 146 -97 248 -131 158 -53 346 -59 524 -18 386 91 807 411 1069 815 l52 80
97 42 c444 192 795 514 990 905 42 85 102 232 102 252 0 3 -23 -25 -52 -63
-62 -82 -235 -257 -333 -336 -171 -137 -392 -263 -569 -323 -43 -14 -79 -25
-81 -23 -2 2 32 109 75 238 46 138 96 311 120 420 23 102 45 201 50 221 8 30
24 44 105 97 232 152 397 349 540 644 108 222 190 513 183 650 -3 66 -10 64
-27 -7 -41 -174 -252 -471 -460 -649 -82 -71 -245 -186 -262 -186 -12 0 -12
11 10 216 11 99 22 220 26 269 4 50 8 106 11 125 9 75 11 632 3 755 -32 489
-112 897 -248 1257 -39 105 -112 271 -116 266 -2 -2 6 -43 17 -93 56 -254 34
-549 -63 -840 -69 -209 -227 -503 -356 -661 l-31 -39 -6 45 c-57 436 -87 604
-162 907 -154 624 -371 1094 -659 1428 l-26 30 11 -29 c49 -133 74 -412 59
-651 -26 -411 -131 -785 -322 -1155 -119 -231 -363 -536 -802 -1005 -165 -175
-226 -245 -289 -329 -279 -371 -360 -745 -270 -1246 37 -205 126 -480 187
-577 51 -81 91 -38 51 55 -49 117 -65 330 -39 513 56 401 253 797 599 1208
314 372 480 618 655 967 178 358 283 696 338 1084 23 171 23 553 -1 694 -9 54
-14 101 -12 103 8 8 57 -76 107 -182 158 -334 360 -1079 438 -1620 28 -192 40
-337 31 -355 -13 -23 -253 -256 -475 -461 -665 -613 -1000 -1025 -1134 -1395
-91 -251 -78 -455 46 -726 l35 -76 -46 -82 c-150 -268 -188 -475 -126 -695
l19 -70 -27 -20 c-58 -43 -202 -177 -304 -284 -178 -185 -305 -367 -383 -548
l-34 -78 -98 -41 c-190 -79 -323 -154 -469 -265 l-102 -78 -69 72 c-38 40 -92
93 -120 118 l-52 46 42 23 c223 122 532 319 672 427 224 172 373 384 437 622
30 109 30 324 0 435 -41 150 -168 350 -347 546 -43 47 -225 234 -404 415 -334
338 -435 455 -496 580 -68 137 -57 214 45 308 120 111 247 161 410 162 122 0
186 -18 255 -71 l44 -33 26 52 c14 29 30 79 35 110 30 187 -84 294 -337 314
-80 6 -85 8 -99 35 -21 40 -84 83 -162 110 -88 30 -276 32 -394 5 -234 -55
-418 -189 -507 -367 -100 -204 -84 -338 128 -1070 110 -380 125 -460 125 -670
l1 -175 -32 -66 c-38 -76 -125 -168 -206 -217 -147 -89 -324 -112 -444 -57
-132 59 -203 186 -203 366 0 97 16 149 129 421 172 416 223 624 224 913 1 241
-45 445 -146 659 -92 194 -202 342 -585 789 -384 448 -538 652 -666 882 -118
213 -208 463 -249 690 -28 158 -30 453 -4 590 21 105 68 265 102 341 13 30 23
54 21 54 -1 0 -45 -59 -96 -132z m-155 -430 c-189 -595 27 -1269 714 -2233
105 -148 260 -349 471 -610 242 -299 326 -431 388 -607 40 -112 53 -187 53
-303 0 -167 -28 -271 -147 -552 -92 -216 -123 -321 -131 -434 -15 -221 102
-452 273 -536 98 -49 145 -58 304 -57 131 0 152 3 212 26 158 60 280 164 361
308 126 225 139 446 40 709 -19 51 -96 218 -171 370 -188 379 -242 544 -243
741 0 171 37 267 145 376 116 117 287 187 486 201 99 7 184 -13 239 -54 l33
-26 -73 -18 c-41 -11 -97 -28 -126 -40 -43 -17 -55 -19 -75 -8 -52 28 -128 -9
-128 -62 0 -23 18 -61 34 -71 25 -17 80 -6 148 28 100 51 239 84 349 84 212 0
318 -62 307 -181 -3 -27 -7 -51 -9 -54 -3 -2 -36 8 -74 22 -93 35 -277 44
-375 19 -136 -35 -305 -139 -364 -225 -77 -111 -73 -255 13 -434 57 -118 102
-189 307 -487 328 -476 435 -681 504 -961 27 -109 37 -299 21 -410 -25 -174
-113 -375 -239 -544 -83 -113 -261 -291 -394 -393 l-101 -78 -81 61 c-125 94
-383 245 -419 245 -8 0 -19 -11 -24 -23 -10 -22 -7 -26 45 -51 121 -59 246
-140 390 -254 l24 -18 -79 -61 c-43 -34 -105 -86 -138 -116 l-60 -55 -69 62
c-164 146 -322 253 -510 343 l-58 28 -37 96 c-109 280 -315 579 -556 807 l-87
82 21 63 c31 94 42 163 42 262 0 142 -31 260 -113 438 l-41 88 22 37 c48 81
90 170 111 237 31 99 38 296 16 425 -35 200 -135 438 -280 664 -96 149 -250
345 -362 461 -33 34 -151 160 -368 395 -120 130 -375 415 -435 487 -43 52 -44
54 -53 155 -32 361 53 903 211 1347 43 120 162 404 167 398 2 -1 -12 -50 -31
-109z m-955 -983 c46 -308 184 -692 377 -1049 l64 -118 4 -312 c2 -171 6 -327
9 -346 3 -19 10 -89 16 -155 10 -112 24 -234 35 -297 2 -16 0 -28 -5 -28 -18
0 -256 138 -468 270 -114 71 -214 133 -222 138 -12 7 -16 40 -18 168 -4 145
12 734 23 872 3 31 9 129 15 217 23 362 71 728 116 881 13 46 25 88 26 92 0 4
4 -51 8 -123 4 -71 13 -166 20 -210z m7844 50 c105 -446 136 -1060 85 -1690
-5 -66 -19 -216 -31 -333 l-22 -214 -51 -33 c-109 -69 -297 -168 -479 -250
-104 -47 -194 -85 -201 -85 -8 0 -5 31 12 108 70 327 102 569 110 817 l6 190
82 125 c155 236 255 424 309 580 88 252 135 535 136 815 0 65 4 104 9 95 5 -8
20 -64 35 -125z m-7239 -1430 c32 -38 178 -191 325 -340 415 -420 532 -548
696 -765 258 -340 362 -622 314 -847 -18 -81 -25 -84 -67 -33 -124 150 -336
346 -554 511 -114 86 -440 307 -621 421 -72 44 -75 48 -86 99 -18 79 -50 333
-61 499 -10 135 -15 539 -7 529 1 -2 29 -35 61 -74z m6571 -272 c-20 -323 -64
-605 -138 -880 l-22 -82 -186 -103 c-604 -333 -947 -572 -1131 -791 l-48 -57
-10 37 c-62 244 55 535 345 858 162 180 318 327 764 716 124 108 270 244 325
302 55 58 102 106 104 106 1 1 0 -47 -3 -106z m-7218 -855 c134 -101 313 -215
514 -328 l151 -85 33 -95 c46 -133 138 -310 206 -401 109 -144 226 -235 370
-287 64 -23 89 -26 203 -27 149 0 230 16 341 70 l69 34 23 -22 c90 -84 153
-247 155 -397 1 -88 -25 -250 -40 -250 -4 0 -70 42 -147 94 -78 52 -204 130
-281 175 -139 81 -532 282 -695 355 -215 97 -353 155 -580 246 -192 77 -248
104 -257 122 -21 41 -72 255 -127 533 -62 309 -70 359 -58 351 5 -3 59 -43
120 -88z m7836 -245 c-12 -73 -65 -279 -100 -393 -50 -159 -140 -424 -153
-449 -6 -11 -29 -25 -50 -31 -85 -23 -765 -250 -911 -305 -441 -165 -773 -325
-1024 -494 -17 -11 -33 -18 -37 -15 -4 2 -13 37 -19 77 -15 85 -8 218 16 297
31 105 107 229 164 270 l28 20 66 -39 c121 -70 188 -86 366 -86 135 1 163 4
220 24 105 36 198 97 291 190 104 103 175 210 269 402 l70 143 257 127 c241
119 449 232 511 278 38 29 44 26 36 -16z m-6835 -316 c338 -161 602 -315 776
-453 l60 -48 -60 -28 c-136 -63 -338 -75 -475 -28 -181 61 -332 209 -443 430
-58 117 -100 230 -85 230 5 0 108 -46 227 -103z m5862 -234 c-137 -273 -284
-427 -479 -501 -59 -23 -82 -26 -202 -26 -116 -1 -145 2 -205 22 -83 28 -165
71 -165 86 1 28 204 151 413 251 84 40 262 116 397 169 135 53 254 101 265
105 11 5 21 5 23 1 2 -5 -19 -53 -47 -107z m-6490 -561 c281 -113 1154 -504
1404 -629 l100 -51 -50 -31 c-100 -63 -256 -96 -414 -88 -388 20 -777 277
-1107 732 -28 39 -59 82 -69 97 l-17 28 38 -14 c22 -8 73 -27 115 -44z m-1020
-232 c165 -51 445 -237 669 -444 118 -109 332 -322 342 -340 9 -17 7 -18 -34
-11 -148 25 -551 137 -733 205 -142 53 -319 138 -405 195 -169 113 -222 245
-137 342 64 73 172 92 298 53z m8039 12 c0 -34 -179 -234 -308 -345 -258 -220
-500 -351 -746 -401 -99 -21 -271 -21 -355 0 -106 26 -281 115 -281 143 0 10
304 130 661 262 240 88 1001 348 1022 349 4 0 7 -3 7 -8z m1041 -343 c48 -16
96 -55 115 -91 23 -44 14 -117 -20 -168 -100 -152 -502 -324 -965 -414 -184
-36 -401 -61 -401 -46 0 12 256 233 391 337 246 189 481 326 644 372 79 22
185 27 236 10z m-7294 -889 c489 -42 948 -93 1183 -130 163 -27 337 -68 354
-85 23 -24 41 -145 40 -277 0 -71 -3 -130 -6 -134 -3 -3 -32 2 -64 10 -166 42
-486 71 -694 62 -153 -7 -377 -36 -470 -61 -30 -8 -60 -15 -67 -15 -10 0 -128
128 -481 523 l-113 127 43 0 c24 0 147 -9 275 -20z m5553 -199 c0 -5 -4 -11
-9 -13 -8 -3 -218 -199 -445 -418 -66 -63 -135 -129 -153 -146 l-33 -32 -81
24 c-127 37 -293 72 -429 90 -171 24 -525 24 -669 1 -57 -9 -108 -14 -113 -11
-19 12 6 250 38 359 l14 51 113 17 c322 51 559 66 1137 74 250 3 457 7 459 9
9 9 171 3 171 -5z m-3673 -137 c64 -35 243 -154 293 -193 l24 -19 -35 -39
c-46 -51 -90 -116 -123 -180 -14 -29 -30 -53 -34 -53 -4 0 -20 9 -37 21 -51
34 -146 81 -234 115 l-85 32 4 58 c3 33 4 125 3 206 l-2 147 80 -29 c45 -16
110 -46 146 -66z m836 -57 c45 -45 99 -103 120 -129 l38 -46 -48 -63 c-94
-124 -153 -266 -153 -366 0 -41 1 -43 30 -43 24 0 31 5 36 28 23 100 38 151
59 192 25 48 121 170 135 170 13 0 87 -104 119 -167 51 -101 51 -102 -19 -169
-129 -123 -200 -268 -200 -408 1 -127 56 -238 178 -361 39 -40 72 -77 72 -81
0 -16 -111 -152 -173 -211 -80 -77 -145 -118 -226 -143 -160 -50 -317 -3 -467
140 -64 61 -148 166 -179 223 l-20 37 55 47 c114 98 184 190 217 286 26 75 23
204 -6 278 -29 77 -91 170 -158 240 l-55 58 37 68 c42 75 109 164 139 183 17
11 23 8 48 -21 60 -72 110 -203 125 -326 6 -53 6 -53 41 -53 l35 0 -6 78 c-10
119 -58 249 -133 355 -19 26 -34 49 -34 51 0 16 278 236 298 236 7 0 50 -37
95 -83z m843 31 c-3 -24 -8 -116 -12 -205 l-7 -163 -41 -11 c-87 -23 -190 -61
-257 -95 -39 -19 -72 -34 -74 -32 -1 2 -17 33 -34 70 -18 38 -52 98 -77 135
-25 38 -48 71 -50 75 -13 21 303 188 446 236 52 17 99 32 104 32 4 0 5 -19 2
-42z m-4679 -122 c108 -35 213 -84 342 -159 128 -74 304 -204 296 -217 -8 -13
-116 -45 -205 -61 -41 -7 -136 -12 -210 -12 -350 1 -589 128 -590 311 0 48 21
100 50 127 57 51 176 55 317 11z m7666 -270 c66 -20 105 -51 118 -96 20 -65 5
-106 -64 -175 -197 -197 -570 -232 -911 -85 l-50 21 50 35 c79 57 262 164 349
204 206 95 394 130 508 96z m-5013 -54 c0 -15 -94 -166 -143 -230 -111 -144
-270 -293 -380 -357 l-48 -28 -97 95 c-53 51 -148 143 -210 203 -62 60 -109
112 -105 115 8 7 340 102 493 141 199 51 490 87 490 61z m180 -10 c79 -20 226
-77 236 -93 3 -5 -6 -40 -20 -77 -90 -237 -120 -532 -72 -709 l14 -52 -55 -7
c-126 -15 -326 23 -491 95 -92 39 -233 121 -285 165 l-29 23 49 28 c212 124
409 339 533 585 17 33 34 60 38 60 4 0 41 -8 82 -18z m1852 -92 c45 -130 178
-344 284 -459 62 -66 225 -203 256 -213 21 -7 -1 -27 -86 -77 -179 -106 -342
-158 -521 -167 -128 -6 -262 12 -257 36 2 7 10 38 17 68 47 179 45 427 -3 607
-17 61 -33 119 -37 131 -6 18 3 24 87 52 99 34 162 49 216 51 28 1 35 -3 44
-29z m344 -15 c76 -18 191 -52 254 -74 170 -59 441 -159 447 -165 6 -5 2 -9
-242 -216 -99 -83 -186 -154 -193 -157 -41 -17 -288 212 -385 358 -55 84 -147
264 -147 289 0 19 102 6 266 -35z m-1727 -235 c33 -69 36 -82 36 -166 0 -84
-3 -95 -37 -165 -25 -51 -57 -95 -105 -141 -37 -38 -73 -68 -79 -68 -15 0 -20
22 -35 140 -19 158 1 361 53 528 l20 67 56 -60 c32 -35 70 -90 91 -135z m973
54 c25 -105 34 -336 19 -445 -14 -97 -40 -199 -51 -199 -19 0 -131 135 -159
192 -61 125 -61 231 0 356 33 67 140 187 161 180 7 -3 20 -40 30 -84z m-2623
-17 c47 -45 144 -136 215 -202 l129 -120 -39 -7 c-22 -4 -88 -7 -149 -7 -306
-2 -587 92 -780 259 -43 37 -44 40 -23 45 13 2 113 23 223 45 110 22 225 47
255 54 30 8 61 14 69 15 8 1 53 -36 100 -82z m4236 -96 c28 -10 151 -44 275
-76 123 -31 229 -59 234 -62 5 -3 -2 -14 -15 -25 -113 -87 -249 -151 -415
-194 -100 -26 -124 -29 -289 -29 -172 0 -295 14 -295 35 0 4 46 45 103 91 192
156 262 213 301 246 22 18 42 33 45 33 3 0 29 -9 56 -19z"/>
<path d="M2945 12059 c-323 -10 -554 -57 -838 -170 -747 -297 -1276 -1007
-1441 -1934 -35 -200 -46 -348 -46 -640 0 -567 84 -958 299 -1400 334 -683
908 -1125 1641 -1264 340 -64 770 -53 1091 29 571 146 1023 507 1302 1040 62
118 144 316 135 325 -5 6 -975 345 -984 345 -2 0 -4 -5 -4 -11 0 -28 -86 -226
-131 -300 -167 -275 -401 -437 -714 -495 -119 -22 -380 -14 -505 15 -316 73
-559 242 -737 513 -106 161 -179 332 -234 550 -124 488 -96 1118 68 1558 83
222 191 397 333 540 154 154 317 247 528 301 543 138 1062 -71 1320 -531 17
-30 47 -102 66 -160 20 -58 39 -104 43 -103 21 5 968 335 972 338 9 9 -74 228
-129 341 -317 647 -954 1055 -1735 1112 -55 4 -190 4 -300 1z"/>
<path d="M22240 11773 c-26 -10 -434 -151 -722 -250 l-278 -96 0 -323 0 -324
-200 0 -200 0 0 -375 0 -375 200 0 199 0 4 -1182 c4 -1291 1 -1224 62 -1441
120 -425 430 -672 910 -727 157 -17 602 -8 733 16 l32 6 0 434 0 434 -47 -8
c-27 -4 -127 -7 -223 -7 -161 0 -179 2 -225 23 -91 42 -137 105 -168 232 -37
148 -40 222 -44 1228 l-4 992 355 0 356 0 0 375 0 375 -355 0 -355 0 0 500 c0
275 -3 500 -7 499 -5 0 -15 -3 -23 -6z"/>
<path d="M6976 10879 c-877 -62 -1511 -627 -1710 -1525 -67 -302 -79 -722 -31
-1044 94 -625 381 -1107 838 -1405 236 -153 535 -255 841 -286 150 -15 476 -6
606 16 1020 173 1630 1025 1586 2217 -28 775 -330 1381 -861 1731 -340 224
-794 330 -1269 296z m409 -859 c262 -67 439 -232 562 -523 155 -368 170 -1000
32 -1411 -67 -201 -151 -337 -278 -449 -83 -73 -148 -110 -258 -147 -165 -54
-360 -60 -536 -14 -281 72 -489 305 -593 662 -99 343 -99 872 1 1216 117 404
357 638 704 687 91 13 277 2 366 -21z"/>
<path d="M14615 10880 c-697 -54 -1284 -485 -1568 -1150 -188 -441 -241 -961
-152 -1483 155 -911 746 -1511 1598 -1622 238 -30 568 -15 792 37 368 85 678
286 904 586 91 120 208 319 195 331 -7 6 -717 255 -789 277 -5 2 -27 -24 -48
-56 -93 -145 -305 -280 -519 -330 -206 -48 -469 -24 -653 59 -281 128 -454
435 -482 859 l-6 92 1361 0 1360 0 7 84 c9 102 -1 314 -21 491 -65 557 -280
1034 -610 1357 -107 104 -125 119 -232 192 -309 210 -718 309 -1137 276z m372
-860 c191 -46 337 -159 438 -336 62 -109 132 -332 147 -469 l3 -30 -842 -3
-843 -2 0 37 c0 61 37 217 70 301 50 125 106 210 199 302 121 121 265 191 446
220 90 14 287 4 382 -20z"/>
<path d="M19100 10883 c-251 -18 -513 -112 -713 -254 -109 -77 -249 -222 -319
-330 l-53 -82 -3 282 -2 281 -490 0 -490 0 0 -2030 0 -2030 515 0 515 0 0
1093 c0 600 3 1142 6 1202 33 707 250 1005 749 1032 415 22 633 -187 706 -677
9 -64 13 -401 16 -1367 l4 -1283 514 0 515 0 0 1333 c0 792 -4 1389 -10 1472
-57 798 -358 1207 -974 1326 -91 18 -352 41 -416 37 -14 -1 -45 -3 -70 -5z"/>
<path d="M9080 10774 c0 -4 65 -205 144 -448 80 -242 274 -837 431 -1321 402
-1235 692 -2128 719 -2210 l23 -70 600 -3 599 -2 41 127 c22 71 98 304 168
518 70 215 228 701 352 1080 427 1312 502 1542 630 1935 l129 395 -555 3
c-305 1 -556 0 -558 -2 -2 -2 -44 -152 -93 -332 -118 -439 -512 -1898 -606
-2249 -109 -406 -106 -395 -115 -365 -4 14 -47 176 -97 360 -50 184 -148 547
-217 805 -323 1195 -368 1364 -422 1567 l-58 218 -557 0 c-307 0 -558 -3 -558
-6z"/>
<path d="M23410 8750 l0 -2030 515 0 c405 0 515 3 515 13 0 6 0 420 0 918 0
901 6 1116 35 1294 72 428 259 700 574 834 125 53 306 91 433 91 l63 0 67
-198 c36 -108 105 -309 151 -447 47 -137 173 -509 280 -825 108 -316 270 -795
362 -1065 92 -269 176 -518 187 -552 l20 -63 205 0 206 0 -6 -29 c-3 -16 -36
-109 -73 -207 -69 -186 -135 -328 -197 -426 -37 -57 -138 -167 -191 -206 l-28
-22 55 -142 c30 -79 106 -276 167 -438 62 -162 114 -297 116 -299 8 -9 110 41
189 93 295 193 610 668 865 1306 77 193 86 221 896 2700 96 294 181 553 189
575 33 96 375 1143 375 1149 0 3 -244 6 -543 6 l-542 0 -109 -342 c-61 -189
-127 -395 -147 -458 -21 -63 -135 -419 -254 -790 -119 -371 -236 -736 -260
-810 -24 -74 -73 -229 -110 -345 -37 -115 -70 -213 -74 -217 -3 -4 -57 152
-119 345 -190 590 -617 1912 -733 2269 -60 185 -109 340 -109 343 0 4 -235 5
-522 2 -574 -4 -621 -8 -803 -68 -271 -90 -490 -286 -604 -541 -15 -35 -34
-76 -42 -93 -12 -26 -14 14 -17 338 l-2 367 -490 0 -490 0 0 -2030z"/>
<path d="M1322 6712 l-202 -2 1 -1583 c1 -1227 4 -1609 14 -1702 41 -372 154
-703 328 -959 84 -124 266 -306 386 -385 330 -218 720 -313 1226 -298 728 21
1227 295 1528 837 93 168 177 433 219 695 l22 140 3 1628 4 1627 -236 0 -235
0 0 -1537 c0 -1618 -1 -1663 -46 -1900 -102 -546 -368 -872 -825 -1008 -161
-49 -257 -59 -524 -59 -276 -1 -357 9 -540 65 -131 41 -210 77 -309 143 -241
160 -407 432 -486 791 -56 260 -54 178 -57 1908 -2 878 -7 1597 -11 1598 -31
3 -83 4 -260 1z"/>
<path d="M24570 6065 l0 -415 -245 0 -245 0 0 -175 0 -175 245 0 245 0 0
-1217 c0 -718 4 -1276 10 -1358 31 -431 154 -677 395 -791 127 -60 167 -67
415 -69 124 -2 249 0 278 2 l52 5 0 189 0 189 -187 -5 c-205 -5 -270 3 -337
44 -45 28 -91 94 -117 169 -46 131 -48 178 -48 1550 l-1 1292 387 -2 388 -3
91 -235 c50 -129 153 -395 228 -590 76 -195 198 -510 272 -700 73 -190 217
-561 319 -825 102 -264 236 -609 298 -767 l111 -288 133 0 c73 0 133 -2 133
-5 0 -2 -26 -62 -59 -132 -198 -433 -407 -689 -671 -823 -57 -29 -189 -73
-253 -85 -33 -6 -37 -10 -31 -29 10 -33 135 -320 143 -329 10 -10 112 9 206
40 397 129 745 510 1030 1129 54 118 1625 3974 1625 3989 0 3 -114 5 -252 5
l-253 0 -17 -43 c-27 -66 -364 -917 -423 -1067 -29 -74 -128 -324 -220 -555
-92 -231 -196 -494 -232 -585 -36 -91 -153 -385 -260 -655 -107 -269 -199
-501 -205 -515 -8 -21 -11 -22 -18 -9 -5 8 -91 229 -190 490 -284 741 -546
1426 -825 2154 -141 369 -266 696 -278 728 l-21 57 -578 0 -578 0 0 415 0 415
-230 0 -230 0 0 -415z"/>
<path d="M7040 5745 c-427 -71 -818 -333 -986 -662 l-44 -87 0 327 0 327 -220
0 -220 0 0 -1880 0 -1880 230 0 230 0 1 1133 c0 622 2 1141 4 1152 1 11 5 48
9 82 15 160 73 359 148 505 164 321 435 527 782 593 262 50 547 17 751 -87
112 -58 244 -190 304 -306 54 -106 86 -199 111 -327 19 -99 25 -160 35 -345 2
-47 4 -606 5 -1242 l0 -1158 225 0 225 0 0 1283 c0 814 -4 1324 -10 1393 -31
319 -116 562 -268 761 -73 96 -127 146 -245 224 -137 89 -292 147 -497 184
-131 23 -456 29 -570 10z"/>
<path d="M15360 5749 c-349 -45 -639 -177 -874 -400 -298 -282 -479 -657 -562
-1165 -22 -134 -30 -564 -14 -721 79 -783 435 -1336 1004 -1563 190 -75 368
-109 616 -117 655 -21 1132 196 1430 652 51 79 156 283 149 289 -2 2 -78 29
-169 60 -91 32 -182 64 -204 72 -21 8 -40 14 -41 12 -1 -2 -24 -45 -50 -97
-108 -210 -261 -369 -455 -474 -87 -46 -224 -92 -340 -114 -131 -24 -373 -23
-495 1 -432 87 -752 397 -908 881 -52 162 -96 420 -93 545 l1 35 1448 3 1447
2 1 103 c2 228 -14 395 -56 604 -110 541 -403 986 -798 1210 -162 92 -382 161
-575 182 -117 13 -365 13 -462 0z m487 -398 c412 -93 725 -402 872 -865 34
-107 67 -282 73 -386 l3 -65 -1214 -3 c-668 -1 -1218 1 -1222 5 -16 17 40 284
88 423 176 511 519 831 973 905 114 19 307 13 427 -14z"/>
<path d="M19510 5744 c-256 -38 -489 -138 -676 -288 -167 -134 -293 -297 -407
-525 l-72 -144 -3 431 -2 432 -215 0 -215 0 0 -1880 0 -1880 225 0 225 0 0
998 c1 548 3 1035 6 1082 23 387 157 704 399 945 158 158 321 257 529 320 102
31 280 65 341 65 23 0 63 3 89 6 l46 7 0 223 0 224 -87 -1 c-49 -1 -131 -7
-183 -15z"/>
<path d="M21120 5754 c-14 -2 -65 -9 -115 -15 -218 -27 -474 -114 -627 -214
-97 -65 -223 -193 -276 -284 -87 -148 -130 -338 -119 -526 8 -128 28 -208 82
-321 127 -265 382 -453 908 -668 75 -31 199 -81 275 -112 322 -133 509 -240
631 -362 194 -195 223 -486 72 -718 -165 -255 -543 -400 -991 -380 -288 12
-567 74 -846 187 -67 27 -124 49 -127 49 -4 0 -7 -101 -7 -224 l0 -224 28 -11
c107 -42 379 -101 596 -128 192 -24 674 -24 811 0 610 107 984 398 1081 842
23 107 23 321 -1 430 -59 275 -217 490 -505 682 -105 70 -361 202 -535 276
-71 30 -202 85 -290 122 -424 178 -600 299 -679 465 -29 60 -31 73 -31 170 1
154 45 277 134 374 81 89 253 166 454 203 132 25 514 24 646 0 212 -40 438
-111 574 -178 l57 -29 0 223 0 224 -92 26 c-293 82 -551 118 -858 122 -124 2
-236 2 -250 -1z"/>
<path d="M9410 3770 l0 -1880 230 0 230 0 0 1880 0 1880 -230 0 -230 0 0
-1880z"/>
<path d="M10390 5641 c0 -5 81 -217 179 -472 361 -935 898 -2326 1073 -2779
99 -256 182 -473 185 -483 5 -16 24 -17 266 -15 l261 3 71 185 c174 449 494
1277 682 1765 113 292 249 645 303 785 54 140 164 425 244 633 80 208 146 380
146 382 0 3 -114 5 -253 5 l-252 0 -259 -712 c-468 -1290 -924 -2543 -934
-2568 -7 -19 -11 -21 -16 -10 -3 8 -233 643 -511 1410 -279 767 -546 1503
-594 1635 l-87 240 -252 3 c-145 1 -252 -1 -252 -7z"/>
<path d="M23119 5646 c-2 -2 -3 -848 -1 -1880 l2 -1876 225 0 225 0 0 1880 0
1880 -223 0 c-123 0 -226 -2 -228 -4z"/>
</g>
</svg>
