<?xml version="1.0" standalone="no"?>
<!DOCTYPE svg PUBLIC "-//W3C//DTD SVG 20010904//EN"
 "http://www.w3.org/TR/2001/REC-SVG-20010904/DTD/svg10.dtd">
<svg version="1.0" xmlns="http://www.w3.org/2000/svg"
 width="435.000000pt" height="116.000000pt" viewBox="0 0 435.000000 116.000000"
 preserveAspectRatio="xMidYMid meet">
<metadata>
Created by potrace 1.16, written by Peter Selinger 2001-2019
</metadata>
<g transform="translate(0.000000,116.000000) scale(0.100000,-0.100000)"
fill="#000000" stroke="none">
<path d="M2 817 l3 -342 34 -70 c27 -55 57 -93 140 -175 58 -58 146 -134 195
-168 l88 -62 92 62 c126 86 293 254 334 337 l32 64 0 349 0 348 -461 0 -460 0
3 -343z m888 -6 c0 -248 -3 -317 -15 -351 -21 -60 -93 -156 -167 -225 -61 -57
-211 -173 -235 -182 -22 -9 -166 100 -269 202 -73 73 -109 117 -132 164 l-32
64 0 319 0 318 425 0 425 0 0 -309z"/>
<path d="M90 779 l0 -291 32 -60 c39 -73 144 -181 257 -266 l83 -62 62 43 c95
65 258 233 289 296 l27 55 0 288 0 288 -375 0 -375 0 0 -291z m231 230 c16
-16 18 -23 8 -35 -6 -8 -9 -17 -5 -21 3 -3 6 -2 6 4 0 20 33 24 51 7 25 -22
24 -51 0 -66 -14 -8 -17 -16 -10 -24 15 -18 -10 -64 -36 -64 -11 0 -26 5 -33
12 -8 8 -15 8 -26 -1 -31 -26 -85 14 -66 49 6 11 3 20 -11 28 -23 15 -24 39
-2 64 20 23 39 23 53 1 8 -15 9 -13 4 10 -5 21 -2 32 12 42 25 19 30 19 55 -6z
m356 -15 c3 -8 -1 -22 -8 -32 -13 -16 -12 -16 7 1 26 22 37 22 59 -3 15 -17
16 -24 7 -45 -6 -14 -16 -25 -22 -25 -6 0 -8 -5 -5 -10 4 -6 4 -23 0 -39 -5
-23 -11 -28 -33 -27 -18 1 -31 9 -39 26 -12 24 -13 24 -13 3 0 -27 -14 -37
-45 -29 -27 7 -42 41 -26 59 7 9 5 16 -8 24 -30 19 -33 51 -5 70 23 14 26 14
46 -3 21 -19 21 -19 8 5 -11 22 -10 27 10 43 24 19 56 11 67 -18z m-227 -223
c5 -11 10 -56 10 -100 l0 -81 -42 6 c-24 3 -73 -1 -110 -9 -38 -8 -68 -13 -68
-10 0 7 43 178 46 181 5 7 100 30 126 31 17 1 31 -6 38 -18z m128 8 c26 -7 51
-16 57 -21 11 -10 56 -170 50 -176 -2 -3 -40 1 -84 8 -62 10 -86 11 -106 2
l-25 -12 0 93 c0 122 8 130 108 106z m-64 -303 c18 -7 43 -26 55 -42 20 -25
22 -38 18 -89 -2 -33 -9 -73 -15 -88 -10 -24 -15 -26 -32 -17 -16 9 -18 15
-10 36 6 14 10 47 10 74 0 58 -23 80 -81 80 -63 0 -87 -46 -65 -128 12 -49 12
-53 -6 -63 -16 -9 -21 -5 -33 25 -18 43 -19 125 -3 162 13 27 76 63 111 64 10
0 32 -6 51 -14z"/>
<path d="M2255 598 c-115 -42 -166 -163 -112 -268 38 -77 125 -117 228 -106
77 8 85 12 98 55 16 57 14 57 -26 12 -30 -33 -47 -44 -79 -48 -92 -12 -166 65
-167 175 -1 110 52 172 149 172 42 0 55 -5 77 -28 15 -15 27 -33 27 -40 0 -7
5 -12 11 -12 12 0 7 76 -6 88 -11 12 -169 12 -200 0z"/>
<path d="M2981 596 c-13 -7 -30 -24 -37 -37 -32 -57 -7 -111 74 -160 79 -48
99 -109 49 -144 -34 -24 -66 -18 -101 18 -18 17 -35 39 -38 47 -10 30 -17 4
-8 -34 10 -43 20 -53 68 -62 87 -17 162 33 162 106 0 36 -6 48 -38 79 -21 20
-54 45 -72 56 -19 11 -41 32 -49 46 -13 24 -13 29 3 53 15 23 23 27 59 24 34
-2 45 -9 64 -37 l23 -34 0 27 c0 53 -15 66 -78 66 -31 -1 -68 -7 -81 -14z"/>
<path d="M1190 587 c25 -12 25 -15 28 -152 1 -77 0 -150 -3 -162 -3 -12 -17
-26 -32 -31 -21 -8 8 -11 118 -11 l147 -1 10 40 c5 23 6 40 1 40 -5 0 -9 -4
-9 -8 0 -5 -9 -18 -20 -30 -16 -17 -32 -22 -74 -22 -33 0 -58 5 -65 14 -8 9
-11 62 -9 167 l3 153 25 7 c15 4 -10 7 -60 8 -75 1 -82 -1 -60 -12z"/>
<path d="M1540 593 c35 -12 40 -35 40 -167 0 -155 -4 -172 -39 -185 -19 -7 15
-10 124 -10 l151 -1 11 40 c5 22 8 40 6 40 -3 0 -18 -13 -33 -30 -24 -26 -35
-30 -82 -30 -30 0 -59 5 -66 12 -7 7 -12 41 -12 81 l0 68 52 -3 c46 -3 53 -6
59 -28 5 -16 7 -2 7 40 1 48 -2 59 -8 43 -8 -20 -17 -23 -60 -23 l-50 0 0 70
c0 82 6 88 79 74 33 -6 49 -15 56 -31 14 -33 27 -28 23 10 l-3 32 -135 2 c-74
1 -128 -1 -120 -4z"/>
<path d="M1918 590 c22 -9 22 -13 22 -173 0 -160 -1 -164 -22 -175 -19 -9 -8
-11 57 -11 65 0 76 2 58 11 -22 11 -23 15 -23 175 0 160 0 164 23 173 16 6 0
9 -58 9 -58 0 -74 -3 -57 -9z"/>
<path d="M2568 590 c22 -9 22 -11 20 -172 -3 -162 -3 -162 -28 -175 -21 -11
-3 -13 122 -13 l146 0 12 36 c11 32 4 67 -8 35 -12 -35 -42 -51 -94 -51 -29 0
-59 4 -67 9 -8 5 -15 35 -19 80 l-5 71 51 0 c46 0 53 -3 66 -27 15 -27 15 -27
16 35 0 40 -4 61 -10 57 -5 -3 -10 -13 -10 -21 0 -10 -14 -14 -55 -14 l-55 0
0 64 c0 79 11 91 78 82 43 -6 64 -20 75 -50 8 -22 15 0 10 32 l-5 32 -132 -1
c-89 0 -124 -3 -108 -9z"/>
<path d="M3216 578 c-12 -45 -6 -53 17 -25 18 24 31 29 72 30 l50 2 3 -159 c3
-166 -1 -181 -41 -189 -12 -2 21 -5 73 -5 75 0 89 2 67 10 -15 5 -29 19 -32
31 -3 12 -4 87 -3 167 l3 145 31 3 c41 4 85 -14 91 -38 9 -32 23 -23 23 15 l0
35 -174 0 c-172 0 -174 0 -180 -22z"/>
<path d="M3646 590 c27 -11 34 -46 34 -175 0 -136 -6 -162 -39 -174 -19 -7 16
-9 123 -8 l149 2 13 38 c16 45 11 46 -26 7 -24 -26 -35 -30 -82 -30 -30 0 -59
5 -66 12 -7 7 -12 40 -12 80 l0 68 49 0 c45 0 50 -3 59 -27 9 -24 10 -18 11
37 0 54 -2 61 -11 43 -9 -19 -19 -23 -60 -23 l-48 0 0 70 c0 82 6 88 79 74 33
-6 49 -15 56 -31 12 -28 25 -30 25 -4 0 50 -4 51 -144 50 -82 0 -123 -3 -110
-9z"/>
<path d="M4000 587 c25 -12 25 -15 28 -152 3 -161 0 -183 -31 -195 -16 -6 3
-9 63 -9 75 -1 82 1 60 12 -23 11 -25 19 -28 85 -3 67 -1 72 18 72 14 0 33
-20 64 -69 54 -84 77 -101 136 -100 33 0 40 2 25 9 -27 11 -55 43 -100 114
-28 44 -34 61 -25 64 34 12 60 52 60 91 0 32 -6 44 -31 65 -29 25 -36 26 -147
26 -101 0 -114 -2 -92 -13z m183 -28 c10 -12 17 -38 17 -60 0 -50 -27 -79 -75
-79 l-35 0 0 78 c0 43 3 82 7 86 13 13 67 -3 86 -25z"/>
</g>
</svg>
