<?xml version="1.0" standalone="no"?>
<!DOCTYPE svg PUBLIC "-//W3C//DTD SVG 20010904//EN"
 "http://www.w3.org/TR/2001/REC-SVG-20010904/DTD/svg10.dtd">
<svg version="1.0" xmlns="http://www.w3.org/2000/svg"
 width="1200.000000pt" height="1200.000000pt" viewBox="0 0 1200.000000 1200.000000"
 preserveAspectRatio="xMidYMid meet">
<metadata>
Created by potrace 1.16, written by Peter Selinger 2001-2019
</metadata>
<g transform="translate(0.000000,1200.000000) scale(0.100000,-0.100000)"
fill="#000000" stroke="none">
<path d="M30 5995 l0 -5975 5975 0 5975 0 0 5975 0 5975 -5975 0 -5975 0 0
-5975z m3038 408 l2 -3273 580 0 580 0 0 -405 0 -405 -975 0 -975 0 0 3680 0
3680 393 -2 392 -3 3 -3272z m3737 2872 l0 -400 -185 -6 c-241 -8 -369 -38
-550 -129 -155 -78 -304 -209 -379 -335 -88 -146 -127 -350 -118 -620 6 -170
19 -249 69 -405 100 -313 338 -783 670 -1325 482 -785 638 -1222 638 -1785 0
-500 -134 -945 -385 -1279 -149 -198 -358 -372 -578 -483 -267 -134 -464 -178
-830 -185 l-247 -5 2 403 3 404 185 6 c102 3 208 11 235 17 354 77 634 295
735 570 66 182 84 502 41 722 -70 358 -304 851 -758 1595 -373 613 -513 947
-580 1385 -26 170 -23 489 6 678 51 334 146 593 305 830 240 359 610 608 1047
706 159 35 252 44 479 42 l195 -1 0 -400z m2943 -2 l2 -403 -600 0 -600 0 0
-1175 0 -1175 558 -2 557 -3 3 -432 2 -433 -560 0 -560 0 0 -1260 0 -1260 600
0 600 0 0 -405 0 -405 -995 0 -995 0 0 3680 0 3680 993 -2 992 -3 3 -402z"/>
</g>
</svg>
