<?xml version="1.0" standalone="no"?>
<!DOCTYPE svg PUBLIC "-//W3C//DTD SVG 20010904//EN"
 "http://www.w3.org/TR/2001/REC-SVG-20010904/DTD/svg10.dtd">
<svg version="1.0" xmlns="http://www.w3.org/2000/svg"
 width="944.000000pt" height="473.000000pt" viewBox="0 0 944.000000 473.000000"
 preserveAspectRatio="xMidYMid meet">
<metadata>
Created by potrace 1.16, written by Peter Selinger 2001-2019
</metadata>
<g transform="translate(0.000000,473.000000) scale(0.100000,-0.100000)"
fill="#000000" stroke="none">
<path d="M4720 2360 l0 -2360 2360 0 2360 0 0 2360 0 2360 -2360 0 -2360 0 0
-2360z m1122 398 c52 -16 121 -77 147 -133 29 -61 29 -181 0 -245 -64 -142
-235 -203 -370 -132 -127 65 -172 233 -102 380 24 50 86 108 136 126 52 18
137 20 189 4z m974 -261 l122 -268 -55 3 -55 3 -27 65 -28 65 -100 3 c-113 3
-108 6 -143 -80 l-22 -58 -53 0 -53 0 107 238 c59 130 113 252 121 270 10 27
18 32 38 30 23 -3 38 -30 148 -271z m-1486 241 c84 -43 112 -125 70 -208 -11
-21 -33 -47 -50 -57 -16 -9 -30 -20 -30 -24 0 -3 32 -51 70 -107 39 -56 70
-104 70 -107 0 -3 -25 -5 -57 -3 l-56 3 -61 98 c-57 90 -63 97 -93 97 l-33 0
0 -100 0 -100 -52 0 -53 0 0 265 0 265 115 0 c100 0 122 -3 160 -22z m850 -83
c34 -58 66 -105 70 -105 5 0 37 47 71 105 l62 105 54 0 54 0 -15 -27 c-8 -16
-51 -82 -95 -148 l-81 -120 0 -117 0 -118 -52 0 -53 0 3 112 2 113 -95 149
c-52 81 -95 150 -95 152 0 2 24 4 54 4 l54 0 62 -105z m940 -120 l0 -225 116
0 c102 0 115 -2 110 -16 -3 -9 -6 -27 -6 -40 l0 -24 -160 0 -160 0 0 265 0
265 50 0 50 0 0 -225z m-1153 -510 c60 -25 102 -63 129 -116 67 -134 23 -308
-98 -383 -95 -58 -232 -46 -316 28 -104 91 -111 283 -15 396 70 81 205 115
300 75z m1379 -20 c165 -102 160 -375 -8 -479 -95 -58 -232 -46 -316 28 -104
91 -111 283 -15 396 56 65 121 92 214 88 64 -3 83 -8 125 -33z m608 -147 c33
-98 64 -178 67 -178 3 0 30 79 59 175 l54 175 53 0 53 0 -30 -82 c-172 -472
-164 -453 -190 -453 -23 0 -30 13 -87 170 -35 94 -64 174 -66 179 -2 6 -21
-37 -42 -95 -96 -262 -95 -260 -122 -257 -23 3 -32 22 -113 250 -49 136 -91
257 -95 268 -6 18 -2 20 47 20 l53 -1 59 -182 59 -182 58 168 c70 201 74 209
101 205 17 -2 31 -33 82 -180z m609 -75 c65 -142 121 -264 124 -270 4 -10 -9
-13 -49 -13 l-54 0 -31 70 -32 71 -102 -3 -103 -3 -26 -65 -26 -65 -52 -3
c-29 -2 -52 -1 -52 1 0 3 43 101 96 219 53 117 107 237 120 266 18 41 28 52
46 52 20 0 37 -29 141 -257z m250 133 c32 -53 61 -96 65 -96 4 0 35 48 70 105
l64 105 54 0 55 0 -36 -56 c-20 -31 -65 -99 -100 -152 l-65 -97 0 -112 0 -113
-50 0 -51 0 7 103 c8 119 16 97 -107 289 l-87 137 51 3 c31 2 56 -2 62 -9 6
-6 36 -55 68 -107z m-3653 4 l0 -111 123 3 122 3 -2 108 -1 107 51 0 52 0 0
-265 0 -265 -51 0 -52 0 2 118 1 117 -122 3 -123 3 0 -121 0 -120 -50 0 -50 0
0 265 0 265 50 0 50 0 0 -110z m1145 -112 l0 -223 113 -3 c121 -3 121 -3 106
-59 -6 -23 -9 -23 -163 -23 l-156 0 0 265 0 265 50 0 50 0 0 -222z m405 -3 l0
-225 116 0 c102 0 115 -2 110 -16 -3 -9 -6 -27 -6 -40 l0 -24 -160 0 -160 0 0
265 0 265 50 0 50 0 0 -225z m1189 -517 c30 -9 33 -13 27 -41 -8 -40 -11 -42
-41 -29 -38 17 -111 15 -129 -4 -21 -21 -20 -67 2 -86 9 -9 42 -30 72 -47 87
-48 115 -83 115 -141 0 -52 -19 -87 -69 -124 -35 -27 -142 -28 -198 -3 -35 15
-38 19 -38 57 l0 40 40 -20 c89 -45 169 -34 184 25 10 39 -13 67 -86 108 -71
40 -102 69 -117 110 -24 61 28 148 97 163 15 3 32 7 37 9 13 5 60 -3 104 -17z
m-2749 -172 c0 -183 0 -185 25 -215 33 -38 95 -50 149 -27 60 25 69 60 64 253
l-4 163 27 0 c15 0 34 3 43 6 14 5 16 -14 16 -172 0 -200 -9 -236 -69 -287
-92 -77 -265 -53 -318 45 -15 28 -19 64 -21 220 l-4 187 34 4 c18 2 39 5 46 5
9 2 12 -41 12 -182z m605 12 c77 -91 144 -167 148 -167 4 -1 7 73 5 164 l-3
165 27 0 c14 0 33 3 42 6 14 6 16 -20 16 -245 0 -138 -2 -251 -4 -251 -2 0
-11 -2 -19 -5 -9 -4 -62 50 -157 162 -78 92 -146 170 -151 171 -5 2 -9 -71 -9
-162 l0 -166 -46 0 c-43 0 -46 2 -40 23 3 12 6 125 6 250 l0 228 22 -3 c15 -2
71 -61 163 -170z m445 -78 l0 -250 -45 0 -45 0 0 244 0 245 33 4 c17 2 38 5
45 5 9 2 12 -54 12 -248z m245 71 c39 -98 73 -177 76 -175 3 2 35 80 70 174
l64 170 44 0 c37 0 43 -3 38 -17 -2 -10 -46 -113 -96 -230 -50 -116 -91 -216
-91 -222 0 -15 -41 -35 -50 -24 -5 6 -183 416 -206 476 -4 11 2 17 18 20 64
12 59 19 133 -172z m665 142 l0 -33 -100 0 -100 0 0 -70 0 -70 85 0 85 0 0
-30 0 -30 -85 0 -85 0 0 -80 0 -80 108 0 108 0 -4 -35 -4 -35 -147 0 -146 0 0
248 0 248 143 0 142 0 0 -33z m360 6 c50 -28 70 -63 70 -119 0 -52 -22 -94
-60 -117 -16 -9 -30 -22 -30 -28 0 -5 29 -51 64 -100 68 -96 68 -105 6 -104
-33 0 -38 4 -93 94 -55 90 -60 95 -93 95 l-34 0 0 -95 0 -95 -45 0 -45 0 0
244 0 245 33 4 c76 11 185 -1 227 -24z m650 -219 l0 -250 -43 0 -43 0 0 245 1
244 35 4 c19 2 38 4 43 5 4 1 7 -110 7 -248z m500 208 l0 -38 -80 0 -80 0 0
-210 0 -210 -45 0 -45 0 0 210 0 210 -80 0 -80 0 0 38 0 38 205 0 205 -1 0
-37z m209 -65 l64 -106 20 24 c11 13 40 59 65 103 25 43 51 80 58 83 7 2 28 3
48 1 l35 -3 -89 -138 -90 -138 0 -109 0 -110 -45 0 -45 0 0 109 0 109 -84 133
c-47 73 -82 137 -80 141 3 4 22 8 42 8 37 0 38 -2 101 -107z m-1847 -593 c105
-29 129 -173 43 -249 -87 -76 -225 -11 -225 106 0 51 39 114 84 134 48 22 50
22 98 9z m-1706 -19 c21 -13 38 -36 49 -65 15 -40 16 -52 5 -91 -18 -66 -66
-105 -129 -105 -132 0 -187 146 -91 242 33 34 43 38 86 38 31 0 61 -7 80 -19z
m274 -1 c0 -18 -7 -20 -55 -20 l-55 0 0 -40 0 -40 45 0 c38 0 45 -3 45 -20 0
-17 -7 -20 -45 -20 l-45 0 0 -60 c0 -56 -2 -60 -22 -60 -23 0 -23 1 -23 140
l0 140 78 0 c70 0 77 -2 77 -20z m180 -100 l0 -120 60 0 c53 0 60 -2 60 -20 0
-18 -7 -20 -82 -20 l-83 0 0 140 c0 139 0 140 23 140 22 0 22 -2 22 -120z
m351 104 c20 -10 38 -32 51 -60 28 -64 17 -117 -32 -166 -33 -34 -43 -38 -87
-38 -134 0 -190 145 -93 242 33 33 44 38 84 38 26 0 61 -7 77 -16z m225 -78
c43 -52 83 -95 87 -95 5 -1 7 42 5 94 -3 93 -2 95 20 95 22 0 22 -1 22 -140 0
-105 -3 -140 -12 -140 -7 0 -49 43 -93 96 l-80 95 -3 -96 c-3 -95 -3 -95 -29
-95 -25 0 -26 1 -19 53 3 28 6 91 6 140 0 48 4 87 8 87 5 0 44 -42 88 -94z
m378 70 c40 -25 59 -63 58 -110 -1 -93 -63 -145 -172 -146 l-55 0 0 141 0 141
72 -4 c43 -3 82 -12 97 -22z m561 -74 l80 -96 3 97 c3 97 3 97 29 97 23 0 25
-3 19 -31 -3 -17 -6 -80 -6 -140 0 -60 -4 -109 -9 -109 -5 0 -47 44 -93 97
l-83 97 -3 -97 c-3 -97 -3 -97 -28 -97 -20 0 -25 4 -20 16 3 9 6 72 6 140 0
93 3 124 13 123 6 0 48 -44 92 -97z"/>
<path d="M5674 2671 c-94 -57 -121 -191 -60 -296 57 -96 191 -102 260 -13 75
99 47 261 -55 313 -39 21 -108 19 -145 -4z"/>
<path d="M5160 2589 l0 -91 57 4 c68 6 103 37 103 94 0 55 -36 84 -105 84
l-55 0 0 -91z"/>
<path d="M5792 1943 c-44 -22 -69 -56 -88 -120 -37 -128 39 -253 156 -253 106
0 179 96 167 222 -12 132 -125 205 -235 151z"/>
<path d="M7140 1949 c-78 -33 -121 -136 -99 -238 18 -87 80 -141 159 -141 103
0 178 95 168 214 -6 65 -32 120 -71 148 -34 25 -118 34 -157 17z"/>
<path d="M7300 1140 l0 -90 51 0 c43 0 55 5 80 29 29 29 37 68 23 106 -10 25
-58 45 -109 45 l-45 0 0 -90z"/>
<path d="M6879 541 c-25 -25 -29 -37 -29 -81 0 -44 4 -56 30 -82 27 -26 36
-30 68 -25 54 9 82 46 82 108 0 42 -5 55 -29 80 -20 20 -39 29 -61 29 -22 0
-41 -9 -61 -29z"/>
<path d="M5164 560 c-35 -14 -54 -50 -54 -103 0 -40 5 -53 29 -78 68 -68 160
-6 148 99 -3 24 -13 53 -23 63 -23 22 -71 32 -100 19z"/>
<path d="M5974 560 c-35 -14 -54 -50 -54 -103 0 -41 5 -53 30 -79 27 -26 36
-30 67 -25 54 9 75 36 81 100 4 46 1 57 -19 80 -26 30 -72 42 -105 27z"/>
<path d="M6560 460 l0 -100 39 0 c57 0 91 32 98 92 5 42 3 50 -25 78 -24 24
-39 30 -71 30 l-41 0 0 -100z"/>
</g>
</svg>
