<?xml version="1.0" encoding="utf-8"?>
<!-- Generator: Adobe Illustrator 19.0.0, SVG Export Plug-In . SVG Version: 6.00 Build 0)  -->
<svg version="1.1" id="layer" xmlns="http://www.w3.org/2000/svg" xmlns:xlink="http://www.w3.org/1999/xlink" x="0px" y="0px"
	 viewBox="-153 -46 652 652" style="enable-background:new -153 -46 652 652;" xml:space="preserve">
<style type="text/css">
	.st0{fill:#EA6424;}
	.st1{fill:#202A30;}
	.st2{fill:#FFFFFF;}
</style>
<rect x="-135.3" y="121.3" class="st0" width="300" height="300"/>
<rect x="164.7" y="121.3" class="st1" width="300" height="300"/>
<path class="st2" d="M-30.3,374.9c0.2,0,0.4-0.1,0.7-0.3c0,0,0-0.1,0.1-0.1c0,0,0,0,0-0.1l0.1-0.1l-1-0.5l-0.1,0.1
	c-0.1,0.1-0.2,0.2-0.3,0.3c-0.1,0.1-0.2,0.1-0.2,0.1c-0.1,0-0.1-0.1-0.2-0.1l-2.4-2.4c0.7,0,1.3,0,1.6-0.2l1-0.6l1.3,1.2l0.8,0
	l-1.5-1.5l2.1-1.2l0.9,0.9c0.2,0.2,0.2,0.3,0,1l-0.1,0.1l1.1,0.1l0,0c0.3-0.3,0.3-0.6,0-0.9l-1.4-1.4l0.3-0.2l-0.8-0.4
	c-0.7-0.6-1-0.8-1.3-1c-0.4-0.2-0.7-0.3-1.1-0.3l-0.2,0l0.2,0.6l0.1,0c0.1,0,0.1,0,0.2,0c0.4,0,0.8,0.2,1.2,0.7l0.2,0.2l-2.1,1.3
	l-0.8,0l0.3,0.3c-0.6,0.4-1,0.6-1.5,0.9c-0.2,0.1-0.3,0.1-0.5,0.1c-0.2,0-0.5-0.1-0.9-0.3l0,0h-0.8l1.3,1.3c0.2,0.2,0.8,0.8,1.1,1.2
	c0.2,0.2,0.3,0.3,0.4,0.5c0.2,0.2,0.3,0.4,0.5,0.5c0.3,0.3,0.6,0.5,1.5,0.5C-30.6,374.9-30.5,374.9-30.3,374.9z M-25.4,375.2
	c-0.2-0.7-0.1-1,0.2-1.3c0.2-0.2,0.6-0.4,1-0.4c0.2,0,0.4,0.1,0.6,0.2c0.3,0.3,0.3,0.5,0,1l-0.1,0.1l1.1,0.1l0-0.1
	c0.4-0.6,0.1-1.2-0.2-1.5c-0.5-0.5-1.4-0.5-1.6-0.5h-0.1c-0.7,0-1.4,0.3-1.9,0.8c-0.5,0.6-0.4,1.2-0.2,1.8c0.1,0.6,0.2,1.1-0.2,1.6
	c-0.3,0.3-0.7,0.6-1.2,0.6c-0.4,0-0.8-0.2-1.1-0.5c-0.6-0.5-0.7-1.1-0.6-1.4c0-0.1,0.1-0.3,0.3-0.7l0.1-0.1l-0.4,0l-1.1,0.7v0.1
	c0,0.7,0.2,1.2,0.8,1.8c0.6,0.5,1.3,0.8,2.1,0.8c0,0,0.1,0,0.1,0c0.9,0,1.6-0.3,2.1-0.9C-25,376.9-25,376.5-25.4,375.2z
	 M-21.5,380.4c0.4-0.5,0.4-0.9,0-2.1c-0.2-0.7-0.1-1,0.1-1.3c0.2-0.2,0.6-0.5,1-0.5c0.2,0,0.4,0.1,0.5,0.2c0.3,0.3,0.4,0.5,0.1,1
	l-0.1,0.1l1.1,0l0-0.1c0.4-0.6,0.1-1.2-0.3-1.5c-0.5-0.4-1.2-0.4-1.5-0.4h-0.1c-0.8,0-1.4,0.4-1.9,0.9c-0.4,0.6-0.3,1.2-0.1,1.8
	c0.2,0.6,0.3,1.1-0.1,1.6c-0.3,0.4-0.8,0.6-1.2,0.6c-0.4,0-0.7-0.1-1.1-0.4c-0.6-0.4-0.7-1.1-0.7-1.4c0-0.1,0.1-0.3,0.3-0.7l0.1-0.1
	l-0.4,0l-1.1,0.8v0.1c0,0.7,0.3,1.2,1,1.7c0.6,0.4,1.2,0.6,1.9,0.6c0.1,0,0.2,0,0.4,0C-22.6,381.3-21.9,380.9-21.5,380.4z
	 M-13.2,380.2l-1.7-1.1l0.2-0.2l-0.9-0.2c-0.8-0.4-1.2-0.6-1.5-0.7c-0.5-0.1-0.9-0.1-1.3-0.1l-0.1,0l0.3,0.7l0.1-0.1
	c0.4-0.3,1-0.2,1.6,0.2l0.2,0.2l-1.8,1.7l-0.8,0.1l0.3,0.3c-0.5,0.5-0.8,0.8-1.3,1.2c-0.2,0.2-0.4,0.2-0.6,0.2c-0.2,0-0.4,0-0.8-0.1
	l0,0l-0.8,0.2l1.5,1c0.3,0.2,1.1,0.7,1.4,0.9c0.2,0.1,0.3,0.2,0.5,0.4c0.3,0.2,0.5,0.3,0.6,0.4c0.2,0.1,0.4,0.2,0.8,0.2
	c0.3,0,0.6-0.1,1.2-0.2c0.2-0.1,0.4-0.1,0.6-0.4c0,0,0-0.1,0-0.1c0,0,0,0,0-0.1l0.1-0.1l-1.1-0.3l0,0.1c-0.1,0.1-0.1,0.3-0.2,0.4
	c-0.1,0.2-0.2,0.2-0.2,0.2c-0.1,0-0.1,0-0.2-0.1l-2.9-1.8c0.7-0.1,1.3-0.3,1.5-0.6l0.8-0.8l1.5,0.9l0.7-0.2l-1.8-1.2l1.8-1.6
	l1.1,0.7c0.3,0.2,0.3,0.3,0.2,1l0,0.1l1.1-0.2l0,0C-12.8,380.7-12.8,380.5-13.2,380.2z M-2.2,384.8c-0.9-0.3-2-0.3-3,0
	c-1.3,0.4-2.2,1.7-2.6,2.7c-0.3,0.8-0.3,1.5-0.1,2.1c0.2,0.4,0.6,0.8,1.2,1c0.1,0.1,0.4,0.1,0.6,0.2l0,0c0.1,0,0.2,0,0.2,0
	c0.5,1.4,1.2,2.4,2.4,2.8c0.3,0.1,0.6,0.2,0.9,0.2c0.3,0,0.5-0.1,0.8-0.2l0,0l-0.2-1.6c-0.1,0-0.2,0.5-0.2,0.7
	c-0.2,0.5-0.5,0.7-0.9,0.6c-0.2-0.1-0.8-0.4-1.5-2.4c0.4-0.1,0.8-0.2,1.2-0.3c1-0.4,1.9-1.5,2.4-2.8C-0.6,386.2-1,385.3-2.2,384.8z
	 M-2.3,387.4c-0.8,2.1-1.8,2.7-2.6,2.9l-0.1-0.2l-0.9,0.2l-0.1-0.1c-0.5-0.2-0.8-0.6-0.9-1.1c-0.1-0.5,0.1-1,0.2-1.4
	c0.6-1.6,1.8-2.7,2.9-2.7c0.2,0,0.4,0,0.6,0.1C-2.7,385.3-1.8,385.9-2.3,387.4z M5.6,393.1c-0.4,0-0.5-0.1-1-0.2c-0.1,0-0.1,0-0.1,0
	c0,0,0-0.2,0-0.3c0.1-0.3,0.2-0.6,0.4-1.1l2.3-4.5l-0.2,0c-1.3-0.1-1.5-0.1-1.8,0.2l-0.1,0.1l0.7,0.2L3.5,392
	c-0.7,0.2-1.4,0.3-1.9,0.2C1,392.1,0.8,391.7,1,391c0.3-1.4,1.7-3.2,2.9-4.3c0.1-0.1,0.1-0.1,0.1-0.2c0-0.1,0-0.1,0-0.1
	c0,0-0.1-0.1-0.1-0.1h0c0,0-0.1,0-0.2,0c-0.1,0-0.2,0-0.3,0c-0.4-0.1-0.7-0.3-0.9-0.3C2.2,386,2,386,1.8,386s-0.3,0-0.5,0.1
	c-0.6,0.2-1.2,0.7-1.5,1.2l-0.1,0.1l0.8,0.2l0-0.1c0.1-0.6,0.6-0.7,1-0.7c0.1,0,0.2,0,0.3,0c0.3,0.1,0.6,0.2,0.8,0.4
	c-1,1.1-2.4,2.6-2.7,3.9c-0.1,0.3-0.1,0.9,0.1,1.2c0.2,0.3,0.4,0.4,0.8,0.5c0.1,0,0.3,0,0.5,0c0.6,0,1.5-0.1,2-0.2l-0.1,0.4v0
	c0,0.1,0.1,0.3,0.3,0.3l1.5,0.1h0c0.2,0,0.6-0.2,0.7-0.3l0.2-0.2C5.8,393.2,5.6,393.1,5.6,393.1z M12.4,393.6
	c-0.2,0-0.3-0.1-0.3-0.1c0,0,0-0.1,0-0.2c0-0.4,0.9-5,1.1-5.8l0-0.1l-0.2-0.2l-0.1,0.1c-0.3,0.2-0.4,0.3-0.6,0.3
	c-0.2,0-0.4-0.1-0.6-0.1c-0.2-0.1-0.5-0.1-0.9-0.1c-0.3,0-0.6,0-0.8,0.1c-0.3,0.1-1,0.6-1.3,0.9c-0.2,0.2-0.4,0.4-0.5,0.6l-0.1,0.1
	l0.8,0l0-0.1c0.1-0.6,0.6-0.9,1.3-0.8c0.3,0,0.9,0.2,1.3,0.3L9,391.5c-1.2,1.4-1.5,1.6-2.3,1.5c0,0-0.1,0-0.2,0c-0.1,0-0.2,0-0.2,0
	l-0.1,0l-0.5,0.8l-0.1,0.1l0.1,0c0.2,0.1,0.3,0.1,0.5,0.1c0.8,0.1,1.3,0,2.5-1.4l0.6-0.7l1.8,0.2l-0.4,2.1l0,0
	c0,0.1,0.2,0.2,0.3,0.3l0,0h0c0.6-0.1,1.2-0.1,2-0.2l0,0l0.3-0.5l-0.4,0C12.7,393.7,12.5,393.7,12.4,393.6z M11.8,389l-0.5,2.4
	l-1.4-0.2C9.8,391.3,11.8,389,11.8,389z M23.6,385.9c-0.2,0-0.4,0.1-0.4,0.1c-0.1,0-1.1,0.7-1.3,0.9c-0.1,0.2-0.4,0.5-0.6,0.8
	l-2.7,4.4l-0.7-5l-0.5,0.4c-0.1,0-0.2,0-0.3,0c-0.2,0-0.5,0-0.7,0c-0.5,0-1,0.1-1.3,0.5c-0.3,0.3-0.6,0.8-0.8,1.2l0,0.1l0.7,0.4
	l0-0.2c0-0.3,0.1-0.6,0.3-0.8c0.2-0.2,0.5-0.2,0.7-0.2c0.3,0,0.7,0,0.9,0.1l-0.7,3.2c-0.3,1.7-0.5,1.7-1.4,1.8h-0.1
	c-0.2,0-0.4,0-0.6,0l-0.1,0l-0.4,1l0.1,0c0.1,0,0.1,0,0.2,0c0,0,0.1,0,0.1,0c0.7,0,1-0.1,1.4-0.3c0.3-0.1,1-1.1,1.2-1.7l0.7-3.1
	l0.6,5l0.6-0.5l2.7-4.8l-0.9,4.7c0,0.2,0.2,0.4,0.4,0.4c0.6-0.1,1.4-0.2,1.9-0.4l0,0l0.5-0.5l-0.3,0c-0.1,0-0.2,0-0.3,0
	c-0.2,0-0.4,0-0.6,0c-0.4,0-0.4-0.1-0.4-0.2c0-0.1,0.1-0.5,0.1-0.8l0.9-5.1c0.1-0.3,0.2-0.5,0.5-0.5c0.1,0,0.4,0.1,0.5,0.1l0.1,0
	l0.3-1.1l-0.1,0C23.7,385.9,23.6,385.9,23.6,385.9z M36.8,382.4L36.8,382.4c-0.2-0.1-0.5-0.2-0.6-0.1c-0.1,0-0.2,0.1-0.6,0.6
	l-0.1,0.1l0.1,0.1c0.3,0.3,0.5,0.5,0.6,0.8c0.3,1-0.2,2.7-0.6,3.5l-1.2,2.6l-0.8-4.8l0.4-0.6l-0.1-0.1c-0.1-0.1-0.2-0.1-0.4,0
	l-1.3,0.4c-0.3,0.1-0.6,0.3-0.8,0.5c-0.2,0.3-0.4,0.6-0.6,0.9l-0.1,0.1l0.6,0.1l0-0.1c0.1-0.5,0.6-0.8,0.8-0.9c0,0,0.2,0,0.3-0.1
	l1.1,6.2l0.8-0.5c0.2-0.1,1.7-3.8,2.1-4.7c0.7-2,0.8-2.8,0.5-3.6C36.9,382.7,36.8,382.5,36.8,382.4z M39.5,382.8
	c0.4-0.2,0.5-0.3,0.8-0.8l0.1-0.3l-2.5,1c-0.1,0.1-0.2,0.3-0.3,0.5l0,0.2l0.9-0.2l0.8,5.5c-0.5,0.2-0.6,0.3-0.8,0.8l-0.1,0.2l2.5-1
	c0.2-0.1,0.3-0.2,0.5-0.6l0.1-0.2l-1.1,0.3C40.4,388.3,39.5,382.8,39.5,382.8z M43.4,379.9l-0.1-0.4l-0.7,0.8
	c-0.3,0.2-0.5,0.4-0.7,0.6c-0.6,0.6-1,1.2-1.2,2l0,0.2l0.8-0.1l0-0.1c0-0.7,0.4-1.3,1.1-1.9l1.1,4.4c0.2,0.8,0.1,1.1-0.8,1.7l0,0
	l-0.3,0.9l0.2-0.1c0.2-0.1,0.3-0.2,0.5-0.2c0.3-0.1,0.7-0.3,1-0.5c1.1-0.6,1.7-1,2-1.3c0.4-0.4,1.4-1.7,1.5-2.9
	c0.1-0.9-0.1-1.9-0.6-2.8C46.5,379.1,45.2,378.9,43.4,379.9z M44.2,383.4l-0.8-3c0.5-0.3,1-0.4,1.4-0.4c0.7,0,1.1,0.6,1.3,1
	c0.3,0.6,0.6,1.6,0.6,2.2c0,1.5-0.8,2.2-1.5,2.6c-0.4,0.2-0.7,0.3-1,0.5c-0.1,0-0.2,0.1-0.3,0.1C44.6,385.3,44.5,384.6,44.2,383.4z
	 M54.4,378.7C54.4,378.7,54.4,378.7,54.4,378.7l-0.1-0.2l-0.7,0.9l0.1,0.1c0.1,0.1,0.2,0.2,0.3,0.3c0.2,0.2,0.1,0.3-0.1,0.4
	l-2.8,1.9c0.2-0.7,0.2-1.3,0.1-1.6l-0.4-1.1l1.4-1.1l0.1-0.7l-1.7,1.2l-0.8-2.3l1-0.7c0.1-0.1,0.2-0.1,0.3-0.1
	c0.1,0,0.3,0.1,0.7,0.3l0.1,0.1l0.3-1.1l0,0c-0.3-0.3-0.5-0.4-0.9-0.1l-1.7,1.2l-0.1-0.3l-0.5,0.8c-0.7,0.6-1,0.9-1.2,1.1
	c-0.4,0.5-0.6,1-0.6,1.5l0,0.1l0.9-0.1l-0.1-0.1c-0.2-0.6,0-1.1,0.8-1.7l0.2-0.2l0.9,2.3l-0.2,0.8l0.4-0.2c0.3,0.6,0.4,1.1,0.6,1.7
	c0.1,0.4,0,0.7-0.4,1.3l-0.2,0.8l1.5-1c0.3-0.2,0.9-0.6,1.4-0.9c0.2-0.1,0.4-0.2,0.6-0.3c0.2-0.1,0.4-0.3,0.6-0.4
	c0.4-0.3,0.6-0.5,0.8-1.8c0-0.3,0-0.5-0.2-0.7C54.4,378.8,54.4,378.7,54.4,378.7z M61.7,375.2c0.1,0.7,0.1,1-0.2,1.2
	c-0.4,0.4-1.7-0.1-3.6-1.4l-1.2-0.8c0.2-0.3,0.5-0.8,0.6-1.2c0.2-0.7-0.1-1.3-0.4-1.7c-0.3-0.4-0.7-0.5-1.1-0.4
	c-0.3,0.1-0.6,0.3-1.3,0.8l-0.2-0.4l-0.6,1.1c-0.1,0.2-0.3,0.3-0.4,0.6c-0.4,0.6-0.7,1.3-0.7,1.9v0.1l0.8-0.2l0-0.1
	c-0.2-0.6,0-1.2,0.5-1.7l1.7,3.2c0.8,1.5,0.5,2,0.3,2.3l-0.6,0.7l0,0.9l1.8-1.5c0.4-0.4,0.5-0.5,0.7-1.3l0.1-0.3l-1.1,1
	c0.1-1.2,0.1-1.8-0.5-2.9l1.8,1.3c0.9,0.7,1.8,1,2.5,1c0.5,0,1-0.2,1.5-0.6c0,0,0.7-0.6,0.7-0.9l0-0.1l-1-1
	C61.6,374.8,61.7,375.2,61.7,375.2z M56.5,373.2c0,0.5-0.3,1-0.6,1.3l-1.1-2.2c0.4-0.3,0.6-0.4,0.8-0.4c0.2,0,0.3,0.1,0.5,0.3
	C56.3,372.4,56.5,372.8,56.5,373.2z M61.9,373.2l-2.9-4.7c0.3-0.3,0.4-0.5,0.4-1.1l0-0.3l-1.9,1.9c-0.1,0.1-0.1,0.4-0.1,0.6l0,0.2
	l0.7-0.5l2.8,4.8c-0.4,0.4-0.4,0.5-0.4,1.1v0.3l1.9-1.9c0.1-0.1,0.2-0.3,0.2-0.7l0-0.2L61.9,373.2z"/>
<path class="st2" d="M96.8,235.9c-1.6,4.4-2,10.4-9.7,14.2c-0.8-3.8-2.2-10.2-7.8-12.9c10.5-6.2,8.2-16.6,8.2-16.6
	s-8.2,6.9-18.3,3.6c0,0,17.7-1.3,18.6-15c0.5-6-3.3-14.2-11-17.2c-7.7-3-12.1-11.3-12.1-11.3c0,0-5.9,11.8,6.4,16
	c-7.1,3.5-3.6,10.4-3.6,10.4s1.5-2.7,4.5-3.6c-1,2.7-2.4,5.6-4,7.2c-1.3,1.3-3.6,2.2-4.7,2.9c3.7-13.3-10.5-18-10.5-18
	s0,0.2,0.1,0.4c0.1,1.9,1.5,14.5-6.1,15.1c-3.2,0.2-4.9-1.2-5.9-2.7c0,0,4.8-1.3,4.9-6.2c0.2-6-4.9-10.4-7.5-10.4l14.1-24.8
	l-14.8-26.1l-12.8,22.6c-0.2,0-0.5-0.1-0.8-0.1c0.6-0.7,0.9-1.6,0.9-2.5c0-2.4-2.1-4.3-4.7-4.3s-4.7,1.9-4.7,4.3
	c0,1,0.4,1.9,0.9,2.6c-0.7,0.1-1.2,0.2-1.7,0.3l-13-22.9l-14.7,26l1.1,1.9h-5.7c2.2,0,6.9-14.8-4.4-18.8c3.3,8.8-3.4,10-3.4,14.9
	c0,1.7,0.9,3.1,1.9,3.9l2,2.2c0.3,0.3,1.1,1.2,2.7,1.8c1.4,0.5,7.9,1.9,10.8,2.7l8.9,15.9c-3.8,0.1-5,0.2-5.5,0.3
	c-4.2,0.7-7.1,6.1-7.1,10.4c0,2.8,2.1,5.3,2.1,5.3l0.3,0.4c-1.4,1.1-3.1,2.4-5.2,4.1c-0.8,0-1.6,0-2.6,0c-7.5-0.5-6.6-14.2-6.4-16.3
	c0,0-14.7,4.3-10.5,17.9c-1.1-0.7-3.4-1.6-4.7-2.9c-1.6-1.6-2.9-4.5-4-7.2c2.3,0.9,3.3,1.8,4.5,3.6c0.5-1.3,3-7.3-3.6-10.4
	c12.3-4.3,6.4-16,6.4-16c0,0-4.4,8.3-12.1,11.3c-7.8,3-11.6,11.3-11,17.2c0.9,8.7,8.8,13.8,18.6,15c-9.4,2.6-11.8-0.1-18.3-3.6
	c-1,8.4,2.9,13.1,8.2,16.6c-4.3,2.2-6.4,6.8-7.8,12.9c-7.9-3.6-9.7-14.2-9.7-14.2s-6.7,22.8,12.4,24.3c-1.9,1.4-7.8,5.4-8.4,13.1
	c-0.6,20.3,13.3,20.1,18.7,29.1c1.4,2.4,1.2,6.5,0.8,9.1c0,0-0.1,0-0.1,0c-2.1,0-3.8,1.7-3.8,3.8c0,0.4,0.1,0.8,0.2,1.1
	c-0.8,0.5-1.6,1.1-2.1,1.9c-1.3,1.9-1.5,4.6-0.6,6.9c0.4,1,0.9,2,1.4,2.8c-3.9,0.8-7.4,1.7-7.4,1.7c6.1,3.3,10.6,4,10.6,17.4h4.4
	c-0.2,1.7-0.4,3.8-0.6,5.6c-0.3,3.8-0.3,21.5-0.3,21.5s22.8,27.4,56.8,27.5l0.1,0c31.4,0,53.2-23.3,56.8-27.5
	c0.2-2.8,0.1-23.4-0.9-27.2H75c0-6.3-0.7-12.1,10.7-17.6c-3.8-0.8-3.5-0.9-7.4-1.6c0.5-0.8,5-7.5-1.3-11.5c0.1-0.4,0.2-0.7,0.2-1.1
	c0-2.1-1.7-3.8-3.8-3.8c0,0-1.2-6.2,0.7-9.1c3.3-6.5,19.9-10.4,18.8-29.1c-0.6-7.8-6.5-11.7-8.4-13.1
	C96,259.5,100.2,248.4,96.8,235.9z M-18.5,160.7c-1.7,3.4-4.2,3.9-5.2,5.2c-0.6-2.9,2.2-4.5,3.3-6.6c1.1-2.2,0.8-5,0.6-6.4
	C-18.3,154.3-17.3,158.5-18.5,160.7z M56.4,200.2c2.1,1.7,4,5,4.6,8.4c0.7,4-2,9.4-2,9.4s6.7-1.2,11-5.6c2.7-2.8,4.2-6.8,5.1-9.2
	c3.5,0.6,7.6,4.6,5.4,10.2c-1.1,2.3-2.6,4.6-4.6,6.1c-2.5,1.8-5.9,2.4-8.3,2.6c1.2-2.6,1.5-4.8,1.5-4.8c-15.1,9.1-24.5,1.1-24.5,1.1
	C52.5,217.3,59,212.3,56.4,200.2z M42.3,245.4c3.2,4.9,3.4,7.7,2.9,12.2c3.1,0,9.1-2.7,5.2-12.4c1.8,2.9,5.9,9.6,9,11.2
	c8.2,4.3,16.3,1.9,16.3,1.9s-8.9-11.4-15.2-16.2c-2.6-2.3-7.3-5.1-8-5.8c1.3,0.6,7.1,4.2,11.4,3.2c0.9,1.7,2.7,5.2,6.1,7.4
	c3.7,2.4,8.2,3.8,11.7,4.6c-3,0.5-6.9,0.2-10-0.8c3.2,3.7,6.7,8.3,6.7,8.3s-3.2,1.3-7.2,1.3c3.1,2.9,6.9,7.2,9.3,11.7
	c0,0,0.2,3.6-3.1,3.7c-3.6-0.2-5.5-6.6-5.5-10.4c0,0-2.6,2.7-3.6,4.1v-9.3l-25.5,0c0.6-2.5,1.3-7.4-0.4-12.6
	C42.3,247.5,42.3,245.4,42.3,245.4z M70.3,317.6c-1.9,2.1-1.7,8.7-1.8,9.5c-1.5,0.1-3.5,0.3-5.5,0.8c2-5.9,3.3-11.8,3.9-17.9
	l0.1-1.2c1,1.6,2.4,3.1,3.5,4.3c-0.5,0.7-0.9,1.5-0.9,2.4C69.6,316.2,69.8,316.9,70.3,317.6z M64.7,263.2v24.1h-99.6v-24.1H8.8
	l6.9,2.5c0,0,0.3-1.5,0.8-2.5H64.7z M59.9,327.5c-0.2,0.6-2.8,7.5-3.6,8.7l-7.2,12l-11.7-19.7L26,347.8L36.2,365
	c-1.7,1.8-3.3,3.4-4.9,4.9c-0.7-0.5-1.7-1.3-2.9-2.5c-1.8-2-2.4-4.3-2.4-4.3h0c0.1-0.6,0.3-1.3,0.5-2c0.6-1.6,1.1-2.2,1.1-2.2v0
	c0,0-0.5-0.6-1.1-2.2c-0.5-1.3-0.7-3-0.7-3s-0.2,1.7-0.7,3c-0.6,1.6-1.1,2.2-1.1,2.2v0c0,0,0.5,0.6,1.1,2.2l0.5,2h0
	c0,0-0.5,2.3-2.4,4.3c-2.4,2.6-4.1,3.2-4.1,3.2s2-0.1,4.1-1.7c1.6-1.2,2.1-2,2.1-2l0,0.3c0,0-0.4,1.9-1.9,3.3
	c-1.4,1.4-2.6,1.9-2.6,1.9s1.4,0.2,2.9-1.1c1.4-1.1,1.4-1.4,1.4-1.4l-0.1,0.6c0,0-0.2,1-1.1,2c-0.6,0.7-1.6,1.3-1.6,1.3
	s1-0.1,1.8-0.7c0.5-0.3,0.9-0.8,0.9-0.8l0.3,2.6c-1.6,1.3-3.1,2.5-4.5,3.5l-6.7-11.2L7.9,378c-1.4-1-3-2.2-4.7-3.7l0.2-2
	c0,0,0.4,0.4,0.9,0.8c0.8,0.5,1.8,0.7,1.8,0.7s-1-0.7-1.6-1.3c-0.9-1-1.1-2-1.1-2l-0.1-0.6c0,0,0,0.2,1.4,1.4
	c1.5,1.2,2.9,1.1,2.9,1.1s-1.2-0.5-2.6-1.9c-1.4-1.4-1.9-3.3-1.9-3.3l0-0.3c0,0,0.5,0.8,2.1,2c2.2,1.6,4.1,1.7,4.1,1.7
	s-1.7-0.6-4.1-3.2C3.5,365.3,3,363,3,363h0c0.1-0.6,0.3-1.3,0.5-2c0.6-1.6,1.1-2.2,1.1-2.2v0c0,0-0.5-0.6-1.1-2.2
	c-0.5-1.3-0.7-3-0.7-3s-0.2,1.7-0.7,3c-0.6,1.6-1.1,2.2-1.1,2.2v0c0,0,0.5,0.6,1.1,2.2l0.5,2h0c0,0-0.5,2.3-2.4,4.3
	c-0.9,1-1.8,1.7-2.4,2.2c-1.6-1.5-3.3-3.2-5-5l9.9-16.6l-11.5-19.3l-11.5,19.4c-3-4.5-5.5-9.2-7.6-13.9v0c-0.6-1.3-2.5-6.2-2.9-7.5
	l10.3-17.3l-11.2-18.9h10.5c-0.4,0.8-0.9,1.7-1.7,2.6c-2.4,2.6-4.1,3.2-4.1,3.2s2-0.1,4.1-1.7c1.6-1.2,2.1-2,2.1-2l0,0.3
	c0,0-0.4,1.9-1.9,3.3c-1.4,1.4-2.6,1.9-2.6,1.9s1.3,0.2,2.9-1c1.4-1.1,1.4-1.4,1.4-1.4l-0.1,0.6c0,0-0.2,1-1.1,2
	c-0.6,0.7-1.6,1.3-1.6,1.3s1-0.1,1.8-0.7c0.5-0.3,0.9-0.8,0.9-0.8l0.6,5.3h0l0.6-5.3c0,0,0.4,0.4,0.9,0.8c0.8,0.5,1.8,0.7,1.8,0.7
	s-1-0.7-1.6-1.3c-0.9-1-1.1-2-1.1-2l-0.1-0.6c0,0,0,0.2,1.4,1.4c1.5,1.2,2.9,1,2.9,1s-1.2-0.5-2.6-1.9c-1.4-1.4-1.9-3.3-1.9-3.3
	l0-0.3c0,0,0.5,0.8,2.1,2c2.2,1.6,4.1,1.7,4.1,1.7s-1.7-0.6-4.1-3.2c-0.8-0.9-1.4-1.8-1.7-2.6H2c-0.4,0.8-0.9,1.7-1.7,2.6
	c-2.4,2.6-4.1,3.2-4.1,3.2s2-0.1,4.1-1.7c1.6-1.2,2.1-2,2.1-2l0,0.3c0,0-0.4,1.9-1.9,3.3c-1.4,1.4-2.6,1.9-2.6,1.9s1.3,0.2,2.9-1
	c1.4-1.1,1.4-1.4,1.4-1.4l-0.1,0.6c0,0-0.2,1-1.1,2c-0.6,0.7-1.6,1.3-1.6,1.3s1-0.1,1.8-0.7c0.5-0.3,0.9-0.8,0.9-0.8l0.6,5.3h0
	l0.6-5.3c0,0,0.4,0.4,0.9,0.8c0.8,0.5,1.8,0.7,1.8,0.7s-1-0.7-1.6-1.3c-0.9-1-1.1-2-1.1-2l-0.1-0.6c0,0,0,0.2,1.4,1.4
	c1.5,1.2,2.9,1,2.9,1S6.5,297.4,5,296c-1.4-1.4-1.9-3.3-1.9-3.3l0-0.3c0,0,0.5,0.8,2.1,2c2.2,1.6,4.1,1.7,4.1,1.7s-1.7-0.6-4.1-3.2
	c-0.8-0.9-1.4-1.8-1.7-2.6H25c-0.4,0.8-0.9,1.7-1.7,2.6c-2.4,2.6-4.1,3.2-4.1,3.2s2-0.1,4.1-1.7c1.6-1.2,2.1-2,2.1-2l0,0.3
	c0,0-0.4,1.9-1.9,3.3c-1.4,1.4-2.6,1.9-2.6,1.9s1.3,0.2,2.9-1c1.4-1.1,1.4-1.4,1.4-1.4l-0.1,0.6c0,0-0.2,1-1.1,2
	c-0.6,0.7-1.6,1.3-1.6,1.3s1-0.1,1.8-0.7c0.5-0.3,0.9-0.8,0.9-0.8l0.6,5.3h0l0.6-5.3c0,0,0.4,0.4,0.9,0.8c0.8,0.5,1.8,0.7,1.8,0.7
	s-1-0.7-1.6-1.3c-0.9-1-1.1-2-1.1-2l-0.1-0.6c0,0,0,0.2,1.4,1.4c1.6,1.2,2.9,1,2.9,1s-1.2-0.5-2.6-1.9c-1.4-1.4-1.9-3.3-1.9-3.3
	l0-0.3c0,0,0.5,0.8,2.1,2c2.2,1.6,4.1,1.7,4.1,1.7s-1.7-0.6-4.1-3.2c-0.8-0.9-1.4-1.8-1.7-2.6h21.5c-0.4,0.8-0.9,1.7-1.7,2.6
	c-2.4,2.6-4.1,3.2-4.1,3.2s2-0.1,4.1-1.7c1.6-1.2,2.1-2,2.1-2l0,0.3c0,0-0.4,1.9-1.9,3.3c-1.5,1.4-2.6,1.9-2.6,1.9s1.3,0.2,2.9-1
	c1.4-1.1,1.4-1.4,1.4-1.4l-0.1,0.6c0,0-0.2,1-1.1,2c-0.6,0.7-1.6,1.3-1.6,1.3s1-0.1,1.8-0.7c0.5-0.3,0.9-0.8,0.9-0.8l0.6,5.3h0
	l0.6-5.3c0,0,0.4,0.4,0.9,0.8c0.8,0.5,1.8,0.7,1.8,0.7s-1-0.7-1.6-1.3c-0.9-1-1.1-2-1.1-2l-0.1-0.6c0,0,0,0.2,1.4,1.4
	c1.5,1.2,2.9,1,2.9,1s-1.2-0.5-2.6-1.9c-1.4-1.4-1.9-3.3-1.9-3.3l0-0.3c0,0,0.5,0.8,2.1,2c2.2,1.6,4.1,1.7,4.1,1.7s-1.7-0.6-4.1-3.2
	c-0.8-0.9-1.4-1.8-1.7-2.6h10.4L49,309.2L59.9,327.5L59.9,327.5z M27.5,372.4c-0.9-1-1.1-2-1.1-2l-0.1-0.6c0,0,0,0.2,1.4,1.4
	c0.4,0.3,0.8,0.6,1.2,0.7c-0.3,0.3-0.7,0.6-1.1,0.9C27.8,372.7,27.6,372.6,27.5,372.4z M27.5,373.2c-0.4,0.4-0.9,0.7-1.3,1.1l0.2-2
	c0,0,0.4,0.4,0.9,0.8C27.4,373.1,27.5,373.2,27.5,373.2z M28.1,370.4c-1.4-1.4-1.9-3.3-1.9-3.3l0-0.3c0,0,0.5,0.8,2.1,2
	c0.9,0.7,1.9,1.1,2.6,1.4c-0.5,0.5-1,0.9-1.5,1.4C29.1,371.2,28.6,370.9,28.1,370.4z M43.8,361.1c5.9-7,10.8-14.3,14.5-21.7
	c0.6,2.9,2.2,6.9,3,9.4c0.8,2.4,0.9,4.4,0.9,5.6c0,0,0,0,0,0c-0.1,0.2-12.5,20.9-37.6,25.4C29.5,376,36.2,370,43.8,361.1z
	 M-29,338.7c4.8,9.4,8.7,15.2,14.8,22.4C-6.7,370,0.1,376,5.2,379.8c-22.5-4-34.9-21-37.4-24.7C-34.2,350-29.7,344.5-29,338.7z
	 M2.2,370.5c0,0-0.2,1-1.1,2c0,0,0,0,0,0c-0.3-0.3-0.6-0.5-0.9-0.8c0.2-0.1,0.4-0.3,0.7-0.5c1.4-1.1,1.4-1.4,1.4-1.4
	S2.2,370.5,2.2,370.5z M2.3,373.5c-0.2-0.2-0.5-0.4-0.7-0.6c0.3-0.3,0.6-0.6,0.6-0.6S2.3,373.5,2.3,373.5z M0.5,370.4
	c-0.3,0.3-0.6,0.6-0.9,0.8c-0.4-0.4-0.9-0.8-1.3-1.2c0.6-0.3,1.3-0.6,2-1.2c1.6-1.2,2.1-2,2.1-2l0,0.3C2.4,367.1,2,369,0.5,370.4z
	 M-41.1,313c1.1-1.2,2.5-2.7,3.5-4.3l0,0.1c0.6,6.5,1.9,12.8,4,19c-2-0.5-4-0.7-5.6-0.8c-0.4-1.2,0.6-6.1-1.8-9.5
	c0.5-0.6,0.7-1.4,0.7-2.2C-40.2,314.4-40.5,313.6-41.1,313z M-38.7,269.6c-1.1-1.7-2.2-2.7-3.6-4.2c-1.6,14.2-8.4,10.8-8.7,6.6
	c1.6-3.4,6.2-8.7,9.3-11.7c-4.4-0.1-7.2-1.3-7.2-1.3s3.6-4.6,6.7-8.3c-2.8,0.8-7,1.3-10,0.8c5.5-1.4,14.5-3.6,17.7-11.9
	c2.9,0.7,7.5-1,11.4-3.2c-2.4,1.7-11.3,6.6-23.1,21.8c15.1,2.3,19.2-2.5,25.2-13c-1.1,3.7-1.7,6.2-0.6,10c1.5,5.2,6.9,3.5,6.9,3.5
	c-2.2-11.9,5.2-16.3,7.3-17.9c1.3,2,4.6,7,5.1,7.8c-4.2,5.2-7.2,8-7.2,8l9.8,3.6h-39.1V269.6z M9.9,193.5l4.4,8H10l-4.4-8H9.9z
	 M2.8,191.3l4.6-8.1c0.6,0.3,1.2,0.6,1.6,0.8c2,0.9,4,1.8,6.8,2.3c-1.9,1.7-7.4,3.2-7.4,3.2l-0.7,1.8H2.8z M12.3,191.3
	c1.4-0.5,5.2-2.8,7.3-4.6c0.8,0.1,1.7,0.1,2.3,0c1.5,1.1,4.6,3.6,8,4.6H12.3z M13.6,261.8l-7.9-2.7c0,0,3.3-3.7,8.7-7.7
	c0.1,2.4,0.3,4,0.3,4s3.8-3.6,7.4-8.7c11.3-5.3,17.1-0.6,18,2.1C33.4,243.7,16.8,254.1,13.6,261.8z M28.8,260.1H18.3
	c2.2-3,6.9-6.5,9.5-7.7C29,255.3,29.1,259.3,28.8,260.1z M39.7,244.2c-1.6-1.2-6.5-4.4-15.2-1.3c2.7-3.5,4.6-12.2,4-17.9
	c2.7,6.8,5,13.2,11.2,17.3C39.7,242.3,39.7,244.2,39.7,244.2z M30.1,201.5l-4.4-8h4.2l4.4,8.1C33.2,201.5,30.1,201.5,30.1,201.5z
	 M34.1,191.3l-0.8-1.8c0,0-5-1.4-7.2-3.1c2.7-0.5,4.8-1.8,6.3-2.8l4.4,7.9C36.7,191.6,34.1,191.3,34.1,191.3z M20.3,193.5l4.4,8
	h-4.6l-4.4-8C15.7,193.5,20.3,193.5,20.3,193.5z M20.8,206.3c0.4,0.3,4.9,6.3,4.9,10.9c0,1.5-1,11.8-15.5,8.9
	C26.4,223.9,22.3,211.3,20.8,206.3z M6.9,224.4c0,0,4.7,11.7,13,4.7c-4.7,7-5.5,12-5.5,19.2c-4.7,3.3-9,7.2-9,7.2
	c-3.4-5.6-18.5-28.8-22.7-32.2h31.1C10.4,224.6,6.9,224.4,6.9,224.4z M3.9,258.5l-8.6-2.9c0.9-0.9,1.7-2,4-4.8
	C0,251.8,3.9,258.5,3.9,258.5z M42.3,205.5C42.2,205.5,42.2,205.5,42.3,205.5L42.3,205.5C42.3,205.5,42.3,205.5,42.3,205.5z
	 M39.1,193.8c6.8,4.2,4.8,10.4,3.2,11.6l-6.8-11.9C35.9,193.6,38.7,193.6,39.1,193.8z M37.6,146.1l1.5,2.6l-11.7,20.7l-1.5-2.6
	L37.6,146.1z M20.2,158.5c1.4,0,2.5,1,2.5,2.3s-1.1,2.3-2.5,2.3s-2.5-1-2.5-2.3S18.8,158.5,20.2,158.5z M23.4,165.7l-0.6,1.1
	l1.1,1.9l-12.8,0C11.2,168.5,16,164.2,23.4,165.7z M1.8,146.1l1.6,2.8l-11.2,19.8h-1.1l-1.1-1.9L1.8,146.1z M-13.1,171.4h38.5
	l5.6,10c-1.1,0.8-3.9,2.9-10.4,2.9c-1.3,0-4.9-0.2-10.5-2.7C0.4,176.5-1.6,173.7-13.1,171.4z M-0.2,193.5l4.4,8H0l-4.3-7.8
	C-4.3,193.7-2.9,193.5-0.2,193.5z M-9.7,202c0-1.7,0.6-3.6,1.5-5.2l3.4,5.7c-1.5,0.9-3,2.3-3.7,3C-9,204.8-9.7,203.3-9.7,202z
	 M-2.4,205.8c0.4,0,1.7-0.1,6-0.1c4.4,0,10.2-0.1,14.9,0c0.2,1,0.4,2.2,0.6,3.4l-17.1,0c0,0,0.5,4.6-3.7,4.6h-10.8
	C-7.8,210-3.3,206.4-2.4,205.8z M-18.3,216.4H0c4.3,0,4.6-3.9,4.6-4.6h14.8c0.5,6-0.5,7.9-1.6,9h-37c-1.4-0.2-4-2.1-4.2-2.2
	C-22.8,218.2-19.1,216.4-18.3,216.4z M-45.7,203.1c0.9,2.4,2.4,6.4,5.1,9.2c4.3,4.4,10.6,5.4,10.6,5.4s-5.1-9.7,3-17.6
	c-1.4,7,0.2,13.1,4,15.2l-5.9,3.1c0,0,2.3,1.5,4.6,2.8c-8.1,1.2-15.4-4-15.4-4s0.3,2.2,1.5,4.8C-50.5,221.9-57.3,206.6-45.7,203.1z
	 M-44.8,236.8c-5.6-2.3-9.9-6.7-10.6-11.7c4.6,2.6,9.9,4.3,19.2,0.4c3.2,4.5,8.1,4.2,9.9,4.2c-4.5,3.2-11.5,2.8-17.4-1
	c1,3.2,2,6.9,6.9,10.1c-0.8,1.6-2.4,4.3-5.1,6c-4.8,3.1-9.9,4.4-12.9,5C-53.1,244.3-50.6,239-44.8,236.8z M-47.9,295.3
	c-0.5-0.3-9.2-5.2-4-18.8c0,0,6.6,6.8,11.4-5.1c9.2,12.2-8.9,15.2-8.9,15.2c14,4.5,13.5,15.9,8.6,22.5
	C-40,303.4-43.4,298.4-47.9,295.3z M-38.4,283.7v7.6c-1.9-2.3-4-3.4-5.5-4.3C-41.4,286.2-39.4,284.8-38.4,283.7z M-46.2,318.3
	c0.6,0.5,1.4,0.8,2.3,0.8c0.4,0,0.8-0.1,1.2-0.2c0.8,1.1,1.2,3.2,1.2,5.8c-0.2,3.1,1.1,6.6,1.7,7.6C-44,331.6-52.6,322.6-46.2,318.3
	z M-40.9,344.5H-43c-0.1-2.5-0.6-7-2.1-9.5c-1.2-2-3.8-3.5-5.3-4.5c0.9-0.1,1.9-0.3,3.1-0.4c4.6,5.2,10.7,4.3,10.7,4.3
	s-1.3-1.7-2-4.7c2.6,0.2,4.8,0.6,6.2,1.3c0.5,1.4,1.1,2.7,1.6,4c-0.6,2.1-2,4.1-3.1,5.2C-36.7,342.8-40.5,341.4-40.9,344.5z
	 M14.7,399.2c-30.2,0-51-22.3-54.2-25.8c0-2.2-1-29.5,2.6-29.3c2.3,0.4-3.1,3.9,1.9,11.7c0.1,0.3,14.8,24.9,44.9,27.3
	c2.6,1.6,3.5,2.3,3.7,2.4l0.6,0.3l0.6-0.3c0.2-0.1,2-0.8,4.3-2.4c26.1-2.3,41.6-22.2,43.8-25.5c6-7.9,1.6-12.1,3-13.4
	c3.6-0.8,2.7,26.2,2.7,29.3C65.8,376.9,45,399.1,14.7,399.2z M79.8,330.5c-1.5,1-4.1,2.5-5.3,4.5c-1.5,2.5-1.9,7-2.1,9.5h-2
	c0-1.3-1.1-2.1-2.2-2.2c-2.7-0.4-5.9-1.4-8-7.1c0.6-1.4,1.2-2.8,1.7-4.2c1.4-0.7,3.6-1.1,6.1-1.3c-0.8,3.1-2,4.7-2,4.7
	s6.1,0.8,10.7-4.3C77.8,330.3,78.9,330.4,79.8,330.5z M75.6,318.3c4.3,2,2.6,11.1-6.5,13.9c2.6-3.7,1.1-11.2,3-13.4
	C72.5,319,74.1,319.5,75.6,318.3z M77.3,295.3c-2.2,1.5-8.3,6.4-7.1,13.8c-4.5-6.3-5.9-17.7,8.6-22.5c-11-2.4-14.3-8-8.9-15.2
	c4.2,10.6,10.6,6.3,11.4,5.1C83.2,280.8,85.2,290.2,77.3,295.3z M67.9,291.9v-8.2c2.1,1.9,3.4,2.5,5.4,3.3
	C71.8,288,69.8,289.2,67.9,291.9z M66.1,238.7c5-2.7,6.9-10.1,6.9-10.1s-8.8,6.6-17.4,1c0.3,0,6.2,1,9.9-4.2
	c5.6,1.9,10.4,4.4,19.2-0.4c-1.7,8.4-10.6,11.7-10.6,11.7c3.8,2,7.1,3.6,9.9,12.9C79.5,248.7,69.7,246.3,66.1,238.7z M49.4,328.5
	l0-0.3c0,0,0.5,0.8,2.1,2c2.2,1.6,4.1,1.7,4.1,1.7s-1.7-0.6-4.1-3.2c-1.8-2-2.4-4.3-2.4-4.3h0c0.1-0.6,0.3-1.3,0.5-2
	c0.6-1.6,1.1-2.2,1.1-2.2v0c0,0-0.5-0.6-1.1-2.2c-0.5-1.3-0.7-3-0.7-3s-0.2,1.7-0.7,3c-0.6,1.6-1.1,2.2-1.1,2.2v0
	c0,0,0.5,0.6,1.1,2.2l0.5,2h0c0,0-0.5,2.3-2.4,4.3c-2.4,2.6-4.1,3.2-4.1,3.2s2-0.1,4.1-1.7c1.6-1.2,2.1-2,2.1-2l0,0.3
	c0,0-0.4,1.9-1.9,3.3c-1.5,1.4-2.6,1.9-2.6,1.9s1.3,0.2,2.9-1c1.4-1.1,1.4-1.4,1.4-1.4l-0.1,0.6c0,0-0.2,1-1.1,2
	c-0.6,0.7-1.6,1.3-1.6,1.3s1-0.1,1.8-0.7c0.5-0.3,0.9-0.8,0.9-0.8l0.6,5.3h0l0.6-5.3c0,0,0.4,0.4,0.9,0.8c0.8,0.5,1.8,0.7,1.8,0.7
	s-1-0.7-1.6-1.3c-0.9-1-1.1-2-1.1-2l-0.1-0.6c0,0,0,0.2,1.4,1.4c1.5,1.2,2.9,1,2.9,1s-1.2-0.5-2.6-1.9
	C49.8,330.4,49.4,328.5,49.4,328.5L49.4,328.5z M26.3,328.5l0-0.3c0,0,0.5,0.8,2.1,2c2.2,1.6,4.1,1.7,4.1,1.7s-1.7-0.6-4.1-3.2
	c-1.8-2-2.4-4.3-2.4-4.3h0c0.1-0.6,0.3-1.3,0.5-2c0.6-1.6,1.1-2.2,1.1-2.2v0c0,0-0.5-0.6-1.1-2.2c-0.5-1.3-0.7-3-0.7-3
	s-0.2,1.7-0.7,3c-0.6,1.6-1.1,2.2-1.1,2.2v0c0,0,0.5,0.6,1.1,2.2l0.5,2h0c0,0-0.5,2.3-2.4,4.3c-2.4,2.6-4.1,3.2-4.1,3.2
	s2-0.1,4.1-1.7c1.6-1.2,2.1-2,2.1-2l0,0.3c0,0-0.4,1.9-1.9,3.3c-1.4,1.4-2.6,1.9-2.6,1.9s1.4,0.2,2.9-1c1.4-1.1,1.4-1.4,1.4-1.4
	l-0.1,0.6c0,0-0.2,1-1.1,2c-0.6,0.7-1.6,1.3-1.6,1.3s1-0.1,1.8-0.7c0.5-0.3,0.9-0.8,0.9-0.8l0.6,5.3h0l0.6-5.3c0,0,0.4,0.4,0.9,0.8
	c0.8,0.5,1.8,0.7,1.8,0.7s-1-0.7-1.6-1.3c-0.9-1-1.1-2-1.1-2l-0.1-0.6c0,0,0,0.2,1.4,1.4c1.6,1.2,2.9,1,2.9,1s-1.2-0.5-2.6-1.9
	C26.7,330.4,26.3,328.5,26.3,328.5z M3.2,328.5l0-0.3c0,0,0.5,0.8,2.1,2c2.2,1.6,4.1,1.7,4.1,1.7s-1.7-0.6-4.1-3.2
	c-1.8-2-2.4-4.3-2.4-4.3h0c0.1-0.6,0.3-1.3,0.5-2c0.6-1.6,1.1-2.2,1.1-2.2v0c0,0-0.5-0.6-1.1-2.2c-0.5-1.3-0.7-3-0.7-3
	s-0.2,1.7-0.7,3c-0.6,1.6-1.1,2.2-1.1,2.2v0c0,0,0.5,0.6,1.1,2.2l0.5,2h0c0,0-0.5,2.3-2.4,4.3c-2.4,2.6-4.1,3.2-4.1,3.2
	s2-0.1,4.1-1.7c1.6-1.2,2.1-2,2.1-2l0,0.3c0,0-0.4,1.9-1.9,3.3c-1.4,1.4-2.6,1.9-2.6,1.9s1.4,0.2,2.9-1c1.4-1.1,1.4-1.4,1.4-1.4
	l-0.1,0.6c0,0-0.2,1-1.1,2c-0.6,0.7-1.6,1.3-1.6,1.3s1-0.1,1.8-0.7c0.5-0.3,0.9-0.8,0.9-0.8l0.6,5.3h0l0.6-5.3c0,0,0.4,0.4,0.9,0.8
	c0.8,0.5,1.8,0.7,1.8,0.7s-1-0.7-1.6-1.3c-0.9-1-1.1-2-1.1-2l-0.1-0.6c0,0,0,0.2,1.4,1.4c1.5,1.2,2.9,1,2.9,1s-1.2-0.5-2.6-1.9
	C3.6,330.4,3.2,328.5,3.2,328.5z M-19.9,328.5l0-0.3c0,0,0.5,0.8,2.1,2c2.2,1.6,4.1,1.7,4.1,1.7s-1.7-0.6-4.1-3.2
	c-1.8-2-2.4-4.3-2.4-4.3h0c0.1-0.6,0.3-1.3,0.5-2c0.6-1.6,1.1-2.2,1.1-2.2v0c0,0-0.5-0.6-1.1-2.2c-0.5-1.3-0.7-3-0.7-3
	s-0.2,1.7-0.7,3c-0.6,1.6-1.1,2.2-1.1,2.2v0c0,0,0.5,0.6,1.1,2.2l0.5,2h0c0,0-0.5,2.3-2.4,4.3c-2.4,2.6-4.1,3.2-4.1,3.2
	s2-0.1,4.1-1.7c1.6-1.2,2.1-2,2.1-2l0,0.3c0,0-0.4,1.9-1.9,3.3c-1.4,1.4-2.6,1.9-2.6,1.9s1.3,0.2,2.9-1c1.4-1.1,1.4-1.4,1.4-1.4
	l-0.1,0.6c0,0-0.2,1-1.1,2c-0.6,0.7-1.6,1.3-1.6,1.3s1-0.1,1.8-0.7c0.5-0.3,0.9-0.8,0.9-0.8l0.6,5.3h0l0.6-5.3c0,0,0.4,0.4,0.9,0.8
	c0.8,0.5,1.8,0.7,1.8,0.7s-1-0.7-1.6-1.3c-0.9-1-1.1-2-1.1-2l-0.1-0.6c0,0,0,0.2,1.4,1.4c1.5,1.2,2.9,1,2.9,1s-1.2-0.5-2.6-1.9
	C-19.5,330.4-19.9,328.5-19.9,328.5z M17.5,265.9c0,0,1,2,1,3.8c0,2.4-2.2,4.3-4.6,4.3c-2.4,0-4.5-2.1-4.5-4.5c0-1.8,1-3.8,1-3.8
	c-3.7,1.5-6.2,5.2-6.2,9.2c0,5.4,4.4,9.7,9.7,9.7c5.4,0,9.7-4.4,9.7-9.7C23.7,270.9,21.3,267.4,17.5,265.9z M14,282.9
	c-4.4,0-8-3.6-8-8c0-1.7,0.6-3.4,1.6-4.8c-0.1,0.4-0.1,0.8-0.1,1.2c0,3.6,2.9,6.5,6.5,6.5c3.6,0,6.5-2.9,6.5-6.5
	c0-0.4,0-0.8-0.1-1.2c1,1.4,1.6,3,1.6,4.8C22,279.3,18.4,282.9,14,282.9z M-13.4,265.9c0,0,1,2,1,3.8c0,2.4-2.2,4.3-4.6,4.3
	s-4.5-2.1-4.5-4.5c0-1.8,1-3.8,1-3.8c-3.7,1.5-6.2,5.2-6.2,9.2c0,5.4,4.4,9.7,9.7,9.7c5.4,0,9.7-4.4,9.7-9.7
	C-7.2,270.9-9.6,267.4-13.4,265.9z M-17,282.9c-4.4,0-8-3.6-8-8c0-1.7,0.6-3.4,1.6-4.8c-0.1,0.4-0.1,0.8-0.1,1.2
	c0,3.6,2.9,6.5,6.5,6.5s6.5-2.9,6.5-6.5c0-0.4,0-0.8-0.1-1.2c1,1.4,1.6,3,1.6,4.8C-9,279.3-12.6,282.9-17,282.9z M48.5,265.9
	c0,0,1,2,1,3.8c0,2.4-2.2,4.3-4.6,4.3c-2.4,0-4.5-2.1-4.5-4.5c0-1.8,1-3.8,1-3.8c-3.7,1.5-6.2,5.2-6.2,9.2c0,5.4,4.4,9.7,9.7,9.7
	c5.4,0,9.7-4.4,9.7-9.7C54.6,270.9,52.2,267.4,48.5,265.9z M44.9,282.9c-4.4,0-8-3.6-8-8c0-1.7,0.6-3.4,1.6-4.8
	c-0.1,0.4-0.1,0.8-0.1,1.2c0,3.6,2.9,6.5,6.5,6.5c3.6,0,6.5-2.9,6.5-6.5c0-0.4,0-0.8-0.1-1.2c1,1.4,1.6,3,1.6,4.8
	C52.9,279.3,49.3,282.9,44.9,282.9z"/>
<path class="st2" d="M9.2,215.9c0,0.9-0.7,1.6-1.6,1.6c-0.9,0-1.6-0.7-1.6-1.6s0.7-1.6,1.6-1.6S9.2,215,9.2,215.9 M15.7,215.9
	c0,0.9-0.7,1.6-1.6,1.6c-0.9,0-1.6-0.7-1.6-1.6c0-0.9,0.7-1.6,1.6-1.6C15,214.3,15.7,215,15.7,215.9"/>
<path class="st2" d="M25.8,309.2l-11.5-18.9L2.9,309.2l11.5,19.3L25.8,309.2z M25.8,347.8l-11.5-19.3L2.9,347.8l11.5,19.2
	L25.8,347.8z M48.9,309.2l-11.5-18.9L26,309.2l11.5,19.3L48.9,309.2z M2.7,309.2l-11.5-18.9l-11.5,18.9l11.5,19.3L2.7,309.2z
	 M-34.6,364.2l0.1,0.2c-0.1,0.1-0.2,0.3-0.3,0.4c-0.1,0.1-0.1,0.3-0.2,0.5c0,0.2,0,0.4,0,0.6c0,0.2,0.1,0.4,0.1,0.5
	c0.1,0.1,0.1,0.3,0.2,0.4l-0.2,0.1c-0.1-0.1-0.2-0.2-0.3-0.2c-0.1-0.1-0.3-0.1-0.5-0.2c-0.2-0.1-0.4-0.1-0.6-0.1
	c-0.2,0-0.4,0-0.5,0.1c-0.1,0.1-0.3,0.1-0.4,0.2l-0.1-0.2c0.1-0.1,0.2-0.3,0.3-0.4c0.1-0.1,0.1-0.3,0.2-0.5c0-0.2,0-0.4,0-0.6
	c0-0.2-0.1-0.4-0.1-0.5c0-0.1-0.1-0.2-0.2-0.4l0.2-0.1c0.1,0.1,0.2,0.2,0.3,0.2c0.1,0.1,0.3,0.1,0.5,0.2c0.2,0,0.4,0.1,0.6,0.1
	c0.2,0,0.4,0,0.5-0.1C-34.9,364.4-34.8,364.3-34.6,364.2 M62.3,366.1l0.1-0.2c0.2,0.1,0.3,0.2,0.5,0.2c0.1,0,0.3,0.1,0.5,0.1
	c0.2,0,0.4,0,0.6-0.1c0.2-0.1,0.3-0.1,0.5-0.2c0.1-0.1,0.2-0.2,0.3-0.2l0.2,0.1c-0.1,0.1-0.1,0.2-0.2,0.4c0,0.1-0.1,0.3-0.1,0.5
	c0,0.2,0,0.4,0,0.6c0,0.2,0.1,0.3,0.2,0.5c0.1,0.1,0.2,0.3,0.3,0.4l-0.1,0.2c-0.2-0.1-0.3-0.2-0.5-0.2c-0.2,0-0.3-0.1-0.5-0.1
	c-0.2,0-0.4,0-0.6,0.1c-0.2,0.1-0.3,0.1-0.5,0.2c-0.1,0.1-0.2,0.2-0.3,0.2l-0.2-0.1c0.1-0.1,0.1-0.2,0.2-0.4s0.1-0.3,0.1-0.5
	c0-0.2,0-0.4,0-0.6c0-0.2-0.1-0.3-0.2-0.5C62.5,366.3,62.4,366.2,62.3,366.1 M-10.5,383.2l0.2,0.1c0,0.2-0.1,0.3-0.1,0.5
	c0,0.2,0,0.3,0,0.5c0,0.2,0.1,0.4,0.2,0.6c0.1,0.2,0.2,0.3,0.3,0.4c0.1,0.1,0.2,0.2,0.3,0.3l-0.1,0.2c-0.1,0-0.2-0.1-0.4-0.1
	s-0.3,0-0.5,0c-0.2,0-0.4,0.1-0.6,0.2c-0.2,0.1-0.3,0.2-0.4,0.3c-0.1,0.1-0.2,0.2-0.3,0.4l-0.2-0.1c0.1-0.2,0.1-0.3,0.1-0.5
	c0-0.2,0-0.3,0-0.5c0-0.2-0.1-0.4-0.2-0.6c-0.1-0.2-0.2-0.3-0.3-0.4c-0.1-0.1-0.2-0.2-0.3-0.3l0.1-0.2c0.1,0,0.2,0.1,0.4,0.1
	c0.1,0,0.3,0,0.5,0c0.2,0,0.4-0.1,0.6-0.2s0.3-0.2,0.4-0.3C-10.7,383.5-10.6,383.4-10.5,383.2 M26.7,387.8l0.2,0
	c0.1,0.2,0.1,0.3,0.2,0.5c0.1,0.1,0.2,0.3,0.3,0.4c0.1,0.1,0.3,0.2,0.5,0.3c0.2,0.1,0.3,0.1,0.5,0.1c0.1,0,0.3,0,0.4,0l0,0.2
	c-0.1,0-0.2,0.1-0.4,0.2c-0.1,0.1-0.3,0.2-0.4,0.3c-0.1,0.1-0.3,0.3-0.3,0.5c-0.1,0.2-0.1,0.3-0.2,0.5c0,0.1,0,0.3,0,0.5l-0.2,0
	c-0.1-0.2-0.1-0.3-0.2-0.4c-0.1-0.1-0.2-0.3-0.3-0.4c-0.1-0.1-0.3-0.2-0.5-0.3c-0.2-0.1-0.3-0.1-0.5-0.2c-0.1,0-0.3,0-0.4,0l0-0.2
	c0.1,0,0.2-0.1,0.4-0.2c0.1-0.1,0.3-0.2,0.4-0.3c0.1-0.1,0.3-0.3,0.3-0.5s0.1-0.3,0.2-0.5C26.7,388.2,26.8,388,26.7,387.8"/>
<path class="st2" d="M204.7,267l-8-12.9h-4.6v5.6c0,1.8,0,5.5,0.1,6.9h-6.6c0.2-2.3,0.3-8.4,0.3-11.5v-10.5c0-3-0.1-9.2-0.3-11.5
	c1.7,0,7.3-0.2,9.5-0.2c8.9-0.1,13.8,4.4,13.6,9.9c-0.1,4.7-2.4,7.7-6.8,9.8l5.1,7.5c1.2,1.7,3.5,4.9,4.5,6.2
	C211.7,266.3,204.7,267,204.7,267z M196.4,249.5c4,0,6.4-2.6,6.4-5.9c0-3.7-2.1-5.8-7-5.8c-1.3,0-2.6,0-3.7,0.1v11.5
	C192.1,249.5,196.4,249.5,196.4,249.5z M212.9,250.8c0-10.4,7-18.4,17.3-18.4c9.8,0,16.4,7.6,16.4,16.7c0,10.4-7,18.4-17.3,18.4
	C219.5,267.5,212.9,259.9,212.9,250.8z M240.5,249.9c0-7.9-4.6-12.7-10.7-12.7c-6.5,0-10.8,5.8-10.8,12.6c0,7.9,4.5,12.7,10.7,12.7
	C236.2,262.5,240.5,256.8,240.5,249.9z M252.8,232.8l8.7,14.4l2.6-4.1c1.9-2.9,4.3-7.1,6-10h6.9l-12.5,19.2v7.6
	c0,1.8,0.1,5.5,0.1,6.9h-6.6c0.2-2.3,0.3-8.4,0.3-11.5v-2.8l-5-7.9c-2-3.2-5.3-8.4-7.3-11.4C246.1,233.1,252.8,232.8,252.8,232.8z
	 M282.4,242.2c1.8-4,3-6.7,4-9.4l3-0.4l11.1,24.5c1.4,3,3.1,6.9,4.6,9.7l-6.6,0.4l-3.9-8.9h-13.5l0,0.1c-1,2.3-2.4,6.1-3.4,8.4h-6.5
	C271.4,266.6,282.4,242.2,282.4,242.2z M283.1,253.7h9.8L288,242C288,242,283.1,253.7,283.1,253.7z M330.8,266.8
	c-3-0.2-6.5-0.2-10.1-0.2c-3.6,0-7.3,0.1-10.3,0.2c0.2-2.3,0.3-8.6,0.3-11.7v-10.5c0-3-0.1-9.2-0.3-11.5c1.9,0,5,0,6.6-0.2
	c-0.1,1.4-0.2,5.2-0.2,7v18.8c0,0.7,0,2,0.1,2.8c1.3,0,2.7,0,4.1,0c3.8,0,7,0,10.1-0.1C331,263.2,330.9,264.9,330.8,266.8z
	 M207.7,313c0.3-2.3,0.4-8.2,0.4-11.3v-3.6h-15.9v8c0,1.8,0.1,5.5,0.2,6.9h-6.6c0.2-2.3,0.3-8.4,0.3-11.5V291c0-3-0.1-9.2-0.3-11.5
	c1.9,0,5.1-0.1,6.6-0.2c-0.1,1.4-0.2,5.2-0.2,7v6.9h15.9v-2.3c0-3-0.1-9.2-0.4-11.5c1.9,0,5.1-0.1,6.6-0.2c-0.1,1.4-0.1,5.2-0.1,7
	v19.8c0,1.8,0,5.5,0.1,6.9L207.7,313L207.7,313z M220.2,297.1c0-10.4,7-18.4,17.3-18.4c9.8,0,16.4,7.6,16.4,16.7
	c0,10.4-7,18.4-17.3,18.4C226.7,313.8,220.2,306.2,220.2,297.1z M247.7,296.3c0-7.9-4.6-12.7-10.7-12.7c-6.5,0-10.8,5.8-10.8,12.6
	c0,7.9,4.5,12.7,10.7,12.7C243.4,308.9,247.7,303.1,247.7,296.3z M278.9,313.1c-3-0.2-6.5-0.2-10.1-0.2c-3.6,0-7.3,0-10.3,0.2
	c0.2-2.3,0.3-8.6,0.3-11.7V291c0-3-0.1-9.2-0.3-11.5c1.9,0,5-0.1,6.6-0.2c-0.1,1.4-0.2,5.2-0.2,7v18.8c0,0.7,0,2,0.1,2.8
	c1.3,0,2.7,0,4.1,0c3.8,0,7,0,10.1-0.1C279.1,309.5,279,311.2,278.9,313.1z M304.8,313.1c-3-0.2-6.5-0.2-10.1-0.2
	c-3.6,0-7.3,0-10.3,0.2c0.2-2.3,0.3-8.6,0.3-11.7V291c0-3-0.1-9.2-0.3-11.5c1.9,0,5-0.1,6.6-0.2c-0.1,1.4-0.2,5.2-0.2,7v18.8
	c0,0.7,0,2,0.1,2.8c1.3,0,2.7,0,4.1,0c3.8,0,7,0,10.1-0.1C305,309.5,304.8,311.2,304.8,313.1z M305.2,297.1c0-10.4,7-18.4,17.3-18.4
	c9.8,0,16.4,7.6,16.4,16.7c0,10.4-7,18.4-17.3,18.4C311.8,313.8,305.2,306.2,305.2,297.1z M332.8,296.3c0-7.9-4.6-12.7-10.7-12.7
	c-6.5,0-10.8,5.8-10.8,12.6c0,7.9,4.5,12.7,10.7,12.7C328.5,308.9,332.8,303.1,332.8,296.3z M378.8,303.9c-1.5,4-2.4,6.7-3.3,9.5
	l-2.9,0.3l-8.6-23.4l-5.2,14.2c-0.9,2.6-2.2,5.6-3.4,9.1h-3l-8.7-24.4c-1-3-2.4-6.9-3.6-9.7l6.5-0.4l7.7,23.7l5.3-15.1
	c0.6-1.8,2.4-6.8,3-8.5l2.9-0.4l8.4,24l4.7-14.8l2.6-8.5h6.5L378.8,303.9z M393.8,288.6c1.8-4,3-6.7,4-9.4l3-0.4l11.1,24.5
	c1.4,3,3.1,6.9,4.6,9.7l-6.6,0.4l-3.9-8.9h-13.5l-0.1,0.1c-1,2.3-2.4,6.1-3.4,8.4h-6.5C382.7,313,393.8,288.6,393.8,288.6z
	 M394.5,300h9.8l-4.9-11.6C399.4,288.4,394.5,300,394.5,300z M419.6,279.1l8.7,14.4l2.6-4.1c1.9-2.9,4.3-7.1,6-10h6.9l-12.5,19.1
	v7.6c0,1.8,0,5.5,0.1,6.9h-6.6c0.2-2.3,0.3-8.4,0.3-11.5v-2.8l-5-7.9c-2-3.2-5.3-8.4-7.3-11.4C412.9,279.5,419.6,279.1,419.6,279.1z
	"/>
<path class="st0" d="M212.3,332.6v11.8c0,5.1-1.2,8.1-3.6,10.4c-2.4,2.4-5.7,3.7-10.2,3.7c-7.4,0-12.6-4.4-12.6-11.8V337
	c0-2.9-0.1-8.6-0.3-10.8c1.8,0,4.7,0,6.2-0.2c-0.1,1.3-0.2,4.9-0.2,6.6v12.6c0,6.1,3,8.4,7.7,8.4c4.7,0,7.3-2.8,7.3-7.6v-9
	c0-2.9-0.1-8.6-0.3-10.8c1.8,0,4.8,0,6.3-0.2C212.4,327.3,212.3,330.9,212.3,332.6z M218.2,346.9l0.1-10.6c0-2.9,0-8.3-0.2-10.4
	l2.7-0.4l18.9,22.2V337c0-2.9-0.1-8.6-0.3-10.8c1.7,0,4.7,0,6.2-0.2c-0.2,1.3-0.3,4.9-0.4,6.6l-0.2,18.8c0,1.7-0.1,5.3,0.1,6.6
	l-2.7,0.4l-18.8-22v14.8c0,1.7,0,5.2,0.2,6.4h-6.1C218,355.5,218.2,349.8,218.2,346.9z M252.2,357.7c0.2-2.1,0.3-7.9,0.3-10.8V337
	c0-2.9-0.1-8.6-0.3-10.8c1.8,0,4.7,0,6.2-0.2c-0.1,1.3-0.2,4.9-0.2,6.6v18.6c0,1.7,0,5.2,0.2,6.4L252.2,357.7L252.2,357.7z
	 M269.6,326l9.1,22.8l5.6-14.4c1-2.6,2.1-5.5,3-8h6.2l-9.8,22.9c-1.7,3.8-2.7,6.3-3.5,8.9l-2.9,0.3l-9.8-23c-1.2-2.8-2.8-6.4-4-9.1
	C263.4,326.3,269.6,326,269.6,326z M317.1,357.9c-2.8-0.2-6.2-0.2-9.4-0.2c-3.4,0-7,0-9.8,0.2c0.2-2.1,0.3-8.1,0.3-11V337
	c0-2.9-0.1-8.9-0.3-11.1c2.8,0.1,6,0.2,9.4,0.2c3.3,0,6.4-0.1,9.3-0.2c-0.2,1.6-0.3,3-0.4,4.8c-2.6,0-5.1-0.1-8.2-0.1
	c-1.3,0-2.8,0-4.1,0c0,0.8,0,1.9,0,2.5v5.8l10.6-0.1c-0.1,1.3-0.1,3-0.1,4.6l-10.5-0.1v7.1c0,0.6,0,1.8,0,2.5c1.3,0,2.8,0,4.1,0
	c3.5,0,6.5,0,9.4-0.1C317.2,354.5,317.1,356.1,317.1,357.9z M340,358l-7.5-12.1h-4.3v5.3c0,1.7,0,5.2,0.1,6.4h-6.2
	c0.2-2.1,0.3-7.9,0.3-10.8V337c0-2.9-0.1-8.6-0.3-10.8c1.6,0,6.9-0.2,8.9-0.2c8.4-0.1,12.9,4.1,12.8,9.3c-0.1,4.4-2.3,7.2-6.4,9.2
	l4.8,7c1.1,1.6,3.3,4.6,4.3,5.9L340,358L340,358z M332.3,341.6c3.8,0,6-2.5,6-5.5c0-3.4-2-5.5-6.6-5.5c-1.3,0-2.4,0-3.5,0.1v10.8
	H332.3z M358.8,358.5c-3.1,0-6.9-1.2-9.3-2.6l0.3-5.6c1.9,1.6,5.7,3.4,9.3,3.4c3,0,5-1.5,5-4.4c0-5.5-13.5-6.1-13.5-14.5
	c0-5.5,4.2-9.3,10.3-9.3c3.1,0,6,1,7.9,2.3l-1.4,4.7c-1.7-1.2-4.3-2.2-6.4-2.2c-2.8,0-4.7,1.6-4.7,4c0,5.2,13.4,5.5,13.4,14.4
	C369.6,354.4,365.4,358.5,358.8,358.5z M374.5,357.7c0.2-2.1,0.3-7.9,0.3-10.8V337c0-2.9-0.1-8.6-0.3-10.8c1.8,0,4.7,0,6.2-0.2
	c-0.1,1.3-0.2,4.9-0.2,6.6v18.6c0,1.7,0,5.2,0.2,6.4L374.5,357.7L374.5,357.7z M412.1,331c-3.3,0-6.2-0.1-10.1-0.1
	c0,0.9,0,2.1,0,2.9v17.5c0,1.7,0,5.2,0.2,6.4h-6.2c0.2-2.1,0.3-7.9,0.3-10.8v-8.8c0-1.8,0-4.7-0.1-7.2c-3.9,0-7,0-10.3,0.1
	c0.1-1.5,0.2-3.4,0.2-5.1c4.1,0.1,8.1,0.2,13.1,0.2c5,0,9.2-0.1,13.4-0.2C412.2,327.6,412.1,329.1,412.1,331L412.1,331z
	 M421.4,325.9l8.2,13.6l2.5-3.9c1.7-2.7,4-6.7,5.6-9.4h6.4l-11.8,18v7.1c0,1.7,0,5.2,0.1,6.4h-6.2c0.2-2.1,0.3-7.9,0.3-10.8v-2.6
	l-4.7-7.4c-1.9-3-5-7.9-6.8-10.7C415.1,326.2,421.4,325.9,421.4,325.9z M185.9,386.4c0-9.2,6.2-16.3,15.3-16.3
	c8.7,0,14.5,6.8,14.5,14.8c0,9.2-6.2,16.3-15.3,16.3C191.7,401.2,185.9,394.4,185.9,386.4z M210.3,385.6c0-7-4.1-11.2-9.5-11.2
	c-5.7,0-9.6,5.1-9.6,11.1c0,7,4,11.2,9.5,11.2C206.5,396.8,210.3,391.7,210.3,385.6z M238.5,375.1c-2.4,0-4.9-0.1-7.7-0.1
	c-1.3,0-2.6,0-3.8,0c0,0.8,0,1.9,0,2.5v5.8l9.6,0c-0.1,1.3-0.1,2.7-0.1,4.3l-9.5-0.1v6.9c0,1.7,0,4.9,0.2,6.1h-5.9
	c0.2-2,0.3-7.4,0.3-10.2v-9.3c0-2.7-0.1-8.4-0.3-10.4c2.7,0.1,5.7,0.2,8.9,0.2c3.1,0,6.1-0.1,8.7-0.2
	C238.6,372,238.5,373.4,238.5,375.1z M270.1,400.6c-2.6-0.2-5.8-0.2-8.9-0.2c-3.2,0-6.5,0-9.1,0.2c0.2-2,0.3-7.6,0.3-10.3v-9.3
	c0-2.7-0.1-8.1-0.3-10.2c1.7,0,4.5,0,5.9-0.2c-0.1,1.2-0.2,4.6-0.2,6.3v16.7c0,0.6,0,1.7,0.1,2.5c1.1,0,2.4,0,3.6,0
	c3.3,0,6.2,0,9-0.1C270.3,397.4,270.1,398.9,270.1,400.6z M272,386.4c0-9.2,6.2-16.3,15.3-16.3c8.7,0,14.5,6.8,14.5,14.8
	c0,9.2-6.2,16.3-15.3,16.3C277.8,401.2,272,394.4,272,386.4z M296.4,385.6c0-7-4.1-11.2-9.5-11.2c-5.7,0-9.6,5.1-9.6,11.1
	c0,7,4,11.2,9.5,11.2C292.6,396.8,296.4,391.7,296.4,385.6z M307.5,390.3l0.1-10c0-2.7,0-7.8-0.2-9.8l2.5-0.3l17.8,21v-10.2
	c0-2.7-0.1-8.1-0.3-10.2c1.7,0,4.4,0,5.8-0.2c-0.2,1.2-0.3,4.6-0.3,6.3l-0.2,17.8c0,1.6-0.1,5,0.1,6.2l-2.5,0.3l-17.7-20.7v14
	c0,1.7,0,4.9,0.2,6.1H307C307.3,398.4,307.4,393,307.5,390.3z M349.7,400.4h-9.6c0.2-2,0.3-7.4,0.3-10.2v-9.3
	c0-2.7-0.1-8.1-0.3-10.2c1.5,0,4.6-0.2,8.7-0.2c10.7,0,16.4,6.2,16.4,14.2C365.3,394.1,359.1,400.4,349.7,400.4z M349.1,374.9
	c-1.2,0-2.2,0-3.2,0.1c0,0.7,0,1.8,0,2.5v16.1c0,0.7,0,1.4,0,2.2c1.1,0.1,1.9,0.2,3.3,0.2c7.6,0,10.7-4.9,10.7-10.8
	C359.9,379,356.1,374.9,349.1,374.9z M370.7,386.2c0-9.3,6.3-16.5,15.5-16.5c8.8,0,14.7,6.8,14.7,15c0,9.3-6.3,16.5-15.5,16.5
	C376.5,401.2,370.7,394.4,370.7,386.2z M395.3,385.5c0-7-4.1-11.3-9.5-11.3c-5.8,0-9.7,5.2-9.7,11.3c0,7,4.1,11.3,9.5,11.3
	C391.4,396.8,395.3,391.6,395.3,385.5z M406.5,390.2l0.1-10.1c0-2.7,0-7.9-0.2-9.9l2.6-0.3l18,21.2v-10.3c0-2.7-0.1-8.2-0.3-10.3
	c1.7,0,4.4,0,5.9-0.2c-0.2,1.2-0.3,4.6-0.3,6.3l-0.2,17.9c0,1.6-0.1,5.1,0.1,6.3l-2.6,0.3l-17.9-20.9v14.1c0,1.7,0,4.9,0.2,6.1H406
	C406.2,398.4,406.4,392.9,406.5,390.2z"/>
</svg>
